G04 DipTrace 2.3.1.0*
%INPERTEC-SCSI.GTL*%
%MOMM*%
%ADD13C,0.559*%
%ADD14C,0.33*%
%ADD15C,0.635*%
%ADD16C,1.5*%
%ADD17R,1.5X1.5*%
%ADD18C,1.5*%
%ADD19C,1.65*%
%ADD20R,1.35X1.35*%
%ADD21C,1.35*%
%ADD22C,3.048*%
%ADD23C,1.27*%
%ADD24R,1.27X1.27*%
%ADD25C,1.524*%
%ADD26C,1.524*%
%ADD27R,1.9X1.9*%
%ADD28C,1.9*%
%ADD29C,1.016*%
%FSLAX53Y53*%
G04*
G71*
G90*
G75*
G01*
%LNTop*%
%LPD*%
X27470Y42710D2*
D13*
X28904D1*
Y43071D1*
X29793Y43960D1*
X31280D1*
X32388Y83349D2*
X33823D1*
X34437Y83963D1*
X36516D1*
X19215Y14135D2*
X20575Y12776D1*
X38811D1*
X40170Y14135D1*
X60966Y67293D2*
X62708Y65551D1*
X65347D1*
X65971Y64927D1*
X82376D1*
X83810Y66361D1*
X85416D1*
X11874Y96050D2*
X14770D1*
X87639Y41414D2*
X86230Y40005D1*
X83352D1*
X31912Y66499D2*
X29516D1*
X28425Y65408D1*
X26990D1*
X99873Y76568D2*
X89884D1*
X94177Y44209D2*
X87655D1*
X82042Y16472D2*
X90792D1*
X27470Y49574D2*
X24092D1*
X54774Y41593D2*
X56209Y43027D1*
X59194D1*
X59220Y43001D1*
X31280Y43960D2*
X33648Y41593D1*
X54774D1*
X57772Y82017D2*
X59719Y83963D1*
X61601D1*
X36516D2*
X38463Y82017D1*
X57772D1*
X40170Y14135D2*
X41530Y12776D1*
X59766D1*
X61125Y14135D1*
X85416Y71441D2*
X81763D1*
X76841Y76363D1*
X18580Y37630D2*
X14770D1*
X81445Y19215D2*
X83985D1*
X50965D2*
Y17304D1*
X51105Y17164D1*
Y16383D1*
X51993Y15495D1*
X56591D1*
X57950Y14135D1*
X81445Y26200D2*
X83985D1*
X18580Y98590D2*
X21121Y101131D1*
X30959D1*
X18580Y75730D2*
X21120D1*
X76206Y59693D2*
X74847Y61052D1*
X56769D1*
X56679Y60963D1*
X18580Y63030D2*
X21120D1*
X74460Y35401D2*
X80791D1*
X81267Y34925D1*
X83352D1*
X99860Y107010D2*
X97101D1*
X96619Y106529D1*
X95260D1*
X73292Y45860D2*
X66605D1*
X56836Y100019D2*
X62894D1*
X65122Y102247D1*
X75158D1*
Y106687D1*
X18580Y78270D2*
X14770D1*
X48425Y19215D2*
X45885D1*
X56045D2*
X58585D1*
X63665D2*
X66205D1*
X23025Y26200D2*
X25565D1*
X38265D2*
X40805D1*
X68745Y19215D2*
X71285D1*
X33185D2*
X35725D1*
X68745Y26200D2*
X71285D1*
X63665D2*
X66205D1*
X81445Y21755D2*
X78905D1*
X76365Y19215D2*
X78905D1*
X18580Y83350D2*
Y80810D1*
X38265Y19215D2*
X40805D1*
X102879Y33814D2*
X105102Y36036D1*
Y48400D1*
X104441Y49060D1*
X93510D1*
X21120Y73190D2*
X18580D1*
X76841Y76363D2*
X78201Y77722D1*
Y85094D1*
X77312Y85983D1*
X66459D1*
X65570Y86872D1*
Y92240D1*
X28105Y19215D2*
X30645D1*
X21615Y20599D2*
Y17856D1*
X26746D1*
X28105Y19215D1*
X14770Y37630D2*
X12141Y35001D1*
Y21488D1*
X13029Y20599D1*
X21615D1*
X83985Y19215D2*
X98971D1*
X99860Y18326D1*
Y14135D1*
X46520Y36360D2*
Y34074D1*
X45631Y33185D1*
X31280D1*
X54774Y36513D2*
X54622Y36360D1*
X46520D1*
X105102Y65249D2*
Y49720D1*
X104441Y49060D1*
X83985Y26200D2*
X101990D1*
X102879Y27089D1*
Y33814D1*
X21120Y75730D2*
X31499D1*
X32388Y76619D1*
Y78269D1*
X18580Y57950D2*
X14770D1*
X21120D2*
X18580D1*
X47152Y58899D2*
X44806Y56553D1*
X28235D1*
X26837Y57950D1*
X21120D1*
X56679Y60963D2*
X47152D1*
Y58899D1*
X21120Y63030D2*
X23823Y60328D1*
X26990D1*
X29870Y41485D2*
X29662Y41276D1*
X28359D1*
X27470Y40387D1*
Y37630D1*
X91767Y106211D2*
X89633Y104078D1*
X87232D1*
X84940Y106370D1*
X95260Y106529D2*
X93329D1*
X93011Y106211D1*
X91767D1*
X75158Y106687D2*
X67158D1*
X45885Y19215D2*
X43345D1*
X58585D2*
X61125D1*
X28105Y26200D2*
X30645D1*
X25565D2*
X28105D1*
X58585D2*
X61125D1*
X56045D2*
X58585D1*
X53505D2*
X56045D1*
X50965D2*
X53505D1*
X48425D2*
X50965D1*
X45885D2*
X48425D1*
X43345D2*
X45885D1*
X40805D2*
X43345D1*
X71285Y19215D2*
X73825D1*
X76365Y26200D2*
X78905D1*
X73825D2*
X76365D1*
X71285D2*
X73825D1*
X36516Y100019D2*
D14*
X34788Y98291D1*
X30259D1*
X28715Y99835D1*
X26175D1*
X24930Y98590D1*
X41427Y96298D2*
X42843Y97713D1*
X52341D1*
X53001Y98374D1*
Y100604D1*
X53661Y101264D1*
X54881D1*
X55541Y100604D1*
Y97346D1*
X56201Y96685D1*
X73775D1*
X74435Y96025D1*
Y89199D1*
X75095Y88538D1*
X80735D1*
X81395Y87878D1*
Y79436D1*
X86736Y74094D1*
Y69198D1*
X86076Y68538D1*
X77451D1*
X76206Y67293D1*
X21120Y98590D2*
X22365Y97345D1*
Y95415D1*
X21705Y94755D1*
X16015D1*
X14770Y93510D1*
X24930Y98590D2*
X21120D1*
X34452Y66499D2*
X35927Y65024D1*
X40597D1*
X42072Y66499D1*
X31912Y58899D2*
X33483Y57327D1*
X37960D1*
X39532Y58899D1*
X63506Y67293D2*
X64751Y68538D1*
X69881D1*
X71126Y67293D1*
X42072Y66499D2*
X43317Y67744D1*
X58048D1*
X58842Y68538D1*
X62261D1*
X63506Y67293D1*
X41596Y107619D2*
X39933Y105956D1*
X36227D1*
X74035Y103480D2*
X41675D1*
X36227Y105956D2*
X33105D1*
X31454Y107607D1*
X17901D1*
X12948Y97371D2*
X13023Y97295D1*
X19875D1*
X21120Y96050D1*
X35229Y97295D2*
X26175D1*
X24930Y96050D1*
X21120Y93510D2*
X24930D1*
X26175Y94755D1*
X28467D1*
X29737Y96025D1*
X37602D1*
X41596Y100019D1*
X68586Y67293D2*
X69831Y66047D1*
X74251D1*
X74911Y66708D1*
Y69895D1*
X74251Y70555D1*
X56381D1*
X54636Y68809D1*
X28302D1*
Y69304D1*
X28467Y94755D2*
X29128D1*
Y93243D1*
X24930Y90970D2*
X21120D1*
X62230Y64433D2*
D3*
X14770Y85890D2*
X12250Y83370D1*
Y64935D1*
X12910Y64275D1*
X23821D1*
X24008Y64088D1*
X28172D1*
X28448Y64363D1*
X32862D1*
X33072Y64153D1*
X61949D1*
X62230Y64433D1*
X21120Y90970D2*
X19825Y89675D1*
X14185D1*
X13525Y89015D1*
Y87135D1*
X14770Y85890D1*
X45390Y87547D2*
X41321D1*
X41003Y87230D1*
X29375D1*
X28715Y87890D1*
Y89015D1*
X28055Y89675D1*
X26175D1*
X24930Y88430D1*
X21120D2*
X19825Y87135D1*
X16675D1*
X16015Y86475D1*
Y84595D1*
X14770Y83350D1*
X24930Y88430D2*
X21120D1*
X24930Y85890D2*
X21120D1*
X32099Y73266D2*
X26568D1*
X26238Y73597D1*
X41345Y70955D2*
X36033D1*
X34960Y69882D1*
X32099D1*
X23431Y103480D2*
X38262D1*
X39335Y104553D1*
X51746D1*
X21120Y85890D2*
X19825Y84595D1*
X17336D1*
X16675Y83935D1*
Y82715D1*
X14770Y80810D1*
X17075Y74339D2*
Y72555D1*
X17735Y71895D1*
X27145D1*
X27207Y71958D1*
X43891D1*
X21120Y83350D2*
X24930D1*
X19221Y102324D2*
X19349Y102451D1*
X51096D1*
X51756Y101791D1*
Y100019D1*
X24917Y62040D2*
X36970D1*
X22545Y108751D2*
X22703D1*
X23021Y109069D1*
X55386D1*
X56836Y107619D1*
X21120Y80810D2*
X22365D1*
X24930D1*
X66681Y83963D2*
X63732Y81014D1*
X52323D1*
X52133Y81204D1*
X30791D1*
X30131Y81864D1*
Y84548D1*
X30791Y85208D1*
X42486D1*
X43146Y85868D1*
X46806D1*
X47466Y86529D1*
Y89541D1*
X45910D1*
X45250Y90201D1*
Y92240D1*
X30791Y81204D2*
X30131Y80543D1*
Y78930D1*
X29471Y78270D1*
X21120D1*
X19825Y76975D1*
X16675D1*
X16015Y76315D1*
Y69355D1*
X14770Y68110D1*
X57442Y69552D2*
X71407D1*
X73666Y67293D1*
X50508Y98857D2*
Y100604D1*
X49848Y101264D1*
X40301D1*
X39056Y100019D1*
X55410Y92240D2*
X54165Y93485D1*
X52235D1*
X51575Y94145D1*
Y96044D1*
X55378Y71615D2*
X69825D1*
X64294Y93491D2*
Y95365D1*
X63634Y96025D1*
X54115D1*
X52870Y94780D1*
X44152Y105956D2*
X65202D1*
X51333Y85566D2*
X61735D1*
X47784Y96380D2*
X43986D1*
X62808Y101663D2*
X56617D1*
X63798Y98361D2*
X56617D1*
X50343Y90272D2*
X47155D1*
X46495Y90932D1*
Y92825D1*
X45835Y93485D1*
X42075D1*
X41415Y92825D1*
Y90449D1*
X47790Y92240D2*
X49035Y93485D1*
Y96393D1*
X49695Y97053D1*
X53636D1*
X54296Y97713D1*
Y100019D1*
X46463Y88538D2*
Y87189D1*
X45803Y86529D1*
X38097D1*
X37795Y86227D1*
X64141Y76363D2*
X62365Y74587D1*
X27476D1*
X49216Y83963D2*
Y85909D1*
X49876Y86569D1*
X58535D1*
X59195Y87230D1*
Y93485D1*
X60490Y94780D1*
X60331Y77972D2*
X48285D1*
X46676Y76363D1*
X57950Y94780D2*
X56655Y93485D1*
Y87890D1*
X55995Y87230D1*
X48786D1*
X48126Y86569D1*
Y85868D1*
X47466Y85208D1*
X45381D1*
X44136Y83963D1*
X41592Y79045D2*
X59176D1*
X64376Y89198D2*
Y85868D1*
X65036Y85208D1*
X67266D1*
X67926Y84548D1*
Y82688D1*
X61601Y76363D1*
X67843Y89198D2*
X70148D1*
X73190Y92240D1*
X69247Y87135D2*
X67475D1*
X66815Y87795D1*
Y93485D1*
X68110Y94780D1*
X22441Y44044D2*
X23025Y44628D1*
Y52185D1*
X23686Y52845D1*
X49530D1*
X50190Y53505D1*
Y55778D1*
X50260Y55766D1*
X21120Y37630D2*
X19875Y38875D1*
X16065D1*
X14770Y40170D1*
X38208Y60223D2*
X29060D1*
X27561Y58725D1*
X22601D1*
X22130Y59195D1*
X14185D1*
X13525Y58535D1*
Y43955D1*
X14770Y42710D1*
X38208Y69882D2*
X48532D1*
X51269Y72618D1*
X69806D1*
X70466Y73279D1*
Y82668D1*
X71761Y83963D1*
X14770Y42710D2*
X16065Y41415D1*
X19875D1*
X21120Y40170D1*
Y42710D2*
X19875Y43955D1*
X16065D1*
X14770Y45250D1*
X46711Y80201D2*
X31451D1*
X30791Y79540D1*
Y77609D1*
X30131Y76949D1*
X23299D1*
X23266Y76981D1*
X37630Y89776D2*
X32760D1*
X31274Y88290D1*
X21120Y45250D2*
X19875Y46495D1*
X16065D1*
X14770Y47790D1*
X49187Y54775D2*
X48806Y54394D1*
X23025D1*
X22365Y53734D1*
Y49035D1*
X21120Y47790D1*
X19875Y49035D1*
X16065D1*
X14770Y50330D1*
X13030Y41567D2*
X11590Y43008D1*
Y91815D1*
X11990Y92215D1*
X30131D1*
X31401Y93485D1*
X38875D1*
X40170Y94780D1*
X14770Y52870D2*
X16065Y51575D1*
X19875D1*
X21120Y50330D1*
X36227Y86227D2*
X29375D1*
X28715Y85566D1*
Y80175D1*
X28055Y79515D1*
X14185D1*
X13525Y78855D1*
Y67488D1*
X14185Y66827D1*
X17075D1*
X42748Y89033D2*
X42005Y88290D1*
X37795D1*
X16993Y56591D2*
Y54775D1*
X17653Y54115D1*
X19875D1*
X21120Y52870D1*
X19799Y69386D2*
X25731D1*
X27300Y70955D1*
X34493D1*
Y73349D2*
X44069D1*
X12542Y39688D2*
X10955Y41276D1*
Y101207D1*
X11330Y101582D1*
X16015D1*
X18986Y104553D1*
X37795D1*
X12948Y61709D2*
X12974Y61735D1*
X19875D1*
X21120Y60490D1*
X53480Y59563D2*
X50296D1*
X46498Y55766D1*
X25165D1*
X74447Y56261D2*
X53480D1*
X26156Y47593D2*
X55995D1*
X56655Y48253D1*
Y52185D1*
X57315Y52845D1*
X69405D1*
X70650Y51600D1*
X25565Y19215D2*
X24270Y20510D1*
Y22340D1*
X23610Y23000D1*
X19952D1*
X19292Y23660D1*
Y29325D1*
X19952Y29985D1*
X24245D1*
X24905Y30645D1*
Y43370D1*
X25565Y44030D1*
X27146D1*
X28492Y45377D1*
X59112D1*
X60598Y46863D1*
X68453D1*
X70650Y49060D1*
X72384Y63360D2*
X30283D1*
X28105Y21755D2*
X30346Y23996D1*
X57842D1*
X58433Y23406D1*
X37630Y39916D2*
X57772D1*
X56617Y57334D2*
X52235D1*
X51575Y56674D1*
Y50965D1*
X50915Y50305D1*
X43999D1*
X35725Y21755D2*
X34430Y20460D1*
X32594D1*
X31934Y21120D1*
Y22911D1*
X40272Y38843D2*
X60186D1*
X63005Y41662D1*
Y43586D1*
X63665Y44246D1*
X77610D1*
X78270Y44907D1*
Y49060D1*
X47790Y14135D2*
X46545Y15380D1*
X37630D1*
X36970Y16040D1*
Y20460D1*
X38265Y21755D1*
X78080Y32322D2*
X73013D1*
X71997Y31306D1*
X52267D1*
X52241Y31331D1*
X50330Y14135D2*
X48425Y16041D1*
X42710D1*
X42050Y16701D1*
Y20510D1*
X40805Y21755D1*
X100120Y31496D2*
X99044Y32572D1*
Y45612D1*
X98384Y46272D1*
X92443D1*
X102184Y17793D2*
Y12001D1*
X101524Y11341D1*
X66459D1*
X63665Y14135D1*
X103918Y50317D2*
X92253D1*
X90970Y51600D1*
X63665Y14135D2*
X61531Y16269D1*
X52870D1*
X52210Y16929D1*
Y19800D1*
X51550Y20460D1*
X49720D1*
X48425Y21755D1*
X45885D2*
X47130Y23000D1*
X56630D1*
X57290Y22340D1*
Y21120D1*
X57950Y20460D1*
X59176D1*
X59836Y21120D1*
Y23654D1*
X66205Y14135D2*
X63411Y16929D1*
X55410D1*
X54750Y17589D1*
Y20510D1*
X53505Y21755D1*
X71285Y14135D2*
X73419Y12001D1*
X100445D1*
X101105Y12661D1*
Y18136D1*
X101765Y18796D1*
X107295D1*
X107956Y19456D1*
Y78317D1*
X107295Y78977D1*
X92875D1*
X92215Y79637D1*
Y93535D1*
X90970Y94780D1*
X98552Y18040D2*
X96025Y15514D1*
Y13322D1*
X95365Y12661D1*
X75299D1*
X73825Y14135D1*
X72580Y15380D1*
X68110D1*
X67450Y16040D1*
Y19800D1*
X66790Y20460D1*
X62420D1*
X61125Y21755D1*
X74035Y17297D2*
X68504D1*
X77006Y45282D2*
Y52876D1*
X85890Y94780D2*
X87135Y93535D1*
Y76075D1*
X87795Y75415D1*
X105975D1*
X106635Y74755D1*
Y24066D1*
X105975Y23406D1*
X87160D1*
X85833D1*
X85160Y24079D1*
X71069D1*
X68745Y21755D1*
X80308Y23076D2*
X72606D1*
X71285Y21755D1*
X92240Y14135D2*
Y16815D1*
X91580Y17475D1*
X75730D1*
X75070Y18135D1*
Y20510D1*
X73825Y21755D1*
X76365D2*
X77660Y20460D1*
X86158D1*
X86462Y20765D1*
X94755D1*
X106635D1*
X107295Y21425D1*
Y76911D1*
X106635Y77571D1*
X90335D1*
X89675Y78232D1*
Y96025D1*
X89015Y96685D1*
X85255D1*
X84595Y96025D1*
Y93485D1*
X83350Y92240D1*
X80556Y36779D2*
X74200D1*
Y37027D1*
X80143Y27451D2*
X97314D1*
X68110Y49060D2*
X66865Y50305D1*
X59855D1*
X59195Y49645D1*
Y47547D1*
X58535Y46887D1*
X27905D1*
X26413Y45395D1*
X24346D1*
X23686Y44735D1*
Y35090D1*
X23025Y34430D1*
X17285D1*
X16040Y33185D1*
X84023Y33230D2*
X83928Y33325D1*
X73825D1*
X73165Y33985D1*
Y37027D1*
X71641D1*
X20955Y27534D2*
X21043Y27445D1*
X31230D1*
X31890Y28105D1*
Y29325D1*
X32550Y29985D1*
X37020D1*
X38265Y28740D1*
X80810Y49060D2*
X79515Y47765D1*
Y40011D1*
X78855Y39350D1*
X64960D1*
X64300Y38690D1*
Y35401D1*
X71310Y57334D2*
X80804D1*
X69380Y35401D2*
Y38030D1*
X70040Y38690D1*
X79515D1*
X80175Y39350D1*
Y43069D1*
X83350Y46243D1*
Y49060D1*
Y51600D2*
X84595Y50355D1*
Y43319D1*
X85255Y42659D1*
X88934D1*
X90179Y41414D1*
X85890Y51600D2*
X87135Y50355D1*
Y45872D1*
X87795Y45212D1*
X94599D1*
X95259Y44552D1*
Y41414D1*
X89719Y50317D2*
Y48475D1*
X90379Y47815D1*
X99679D1*
X100339Y47155D1*
Y41414D1*
X55378Y32982D2*
X66180D1*
X66840Y33642D1*
Y35401D1*
X57112Y37027D2*
X60853D1*
X63836Y40011D1*
X71469D1*
X74460Y43001D1*
X92719Y41414D2*
X89335Y38030D1*
X70625D1*
Y32626D1*
X69965Y31966D1*
X54375D1*
Y34156D1*
X56094Y35875D1*
Y37172D1*
X55434Y37833D1*
X29985D1*
Y30620D1*
X28105Y28740D1*
X90179Y33814D2*
X87671Y31306D1*
X74819D1*
X74158Y30645D1*
X55410D1*
X53505Y28740D1*
X97799Y41414D2*
Y35719D1*
X97139Y35059D1*
X92084D1*
X91424Y34399D1*
Y31306D1*
X90764Y30645D1*
X75479D1*
X74819Y29985D1*
X59830D1*
X58585Y28740D1*
X35725D2*
X37020Y27445D1*
X76950D1*
X77610Y28105D1*
Y29325D1*
X78270Y29985D1*
X94599D1*
X95259Y30645D1*
Y33814D1*
X104083Y24892D2*
X35090D1*
X34430Y25552D1*
Y27495D1*
X33185Y28740D1*
X36227Y40329D2*
X29528D1*
X28867Y39669D1*
Y35141D1*
X27445Y33719D1*
Y30963D1*
X26810Y30328D1*
Y29985D1*
X25565Y28740D1*
X38868Y31661D2*
X39884Y30645D1*
X43980D1*
X45885Y28740D1*
X53562Y43053D2*
X49333D1*
X48426Y43960D1*
X46520D1*
X41262Y34303D2*
X43320D1*
X43980Y34963D1*
Y36360D1*
X41262Y31661D2*
X45504D1*
X48425Y28740D1*
X66605Y41072D2*
X64960D1*
X64300Y41732D1*
Y43001D1*
X69577Y33064D2*
X68085Y34556D1*
Y35986D1*
X67425Y36646D1*
X66205D1*
X65545Y35986D1*
Y34385D1*
X64885Y33725D1*
X63436D1*
X61760Y35401D1*
X51333Y62287D2*
X86736D1*
X87397Y62947D1*
Y73434D1*
X88057Y74094D1*
X93697D1*
X94942Y72849D1*
X88811Y58407D2*
X52407D1*
X101606Y21920D2*
X91985D1*
X91820Y21755D1*
X83985D1*
X51581Y44374D2*
X60387D1*
X61760Y43001D1*
X52870Y49060D2*
X54115Y50305D1*
Y53880D1*
X54775Y54540D1*
X90447D1*
X91107Y55200D1*
Y71555D1*
X92402Y72849D1*
X89862Y65249D2*
Y55860D1*
X89202Y55200D1*
X53530D1*
X52870Y54540D1*
Y51600D1*
X73190Y49060D2*
X74435Y50305D1*
Y53219D1*
X75095Y53880D1*
X99361D1*
X100022Y54540D1*
Y65249D1*
X77795Y108433D2*
X80337D1*
X82400Y106370D1*
X77795Y98273D2*
X80150D1*
X80810Y97613D1*
Y94780D1*
X75158Y100687D2*
X67158D1*
D29*
X11874Y96050D3*
X89884Y76568D3*
X99873D3*
X87655Y44209D3*
X94177D3*
X90792Y16472D3*
X82042D3*
X24092Y49574D3*
X27470D3*
X57772Y82017D3*
X66605Y45860D3*
X73292D3*
X21615Y20599D3*
X29870Y41485D3*
X41427Y96298D3*
X17901Y107607D3*
X41675Y103480D3*
X74035D3*
X12948Y97371D3*
X35236Y97288D3*
X36227Y105956D3*
X29127Y93243D3*
X28302Y69304D3*
X45390Y87547D3*
X26238Y73597D3*
X32099Y73266D3*
Y69882D3*
X41345Y70955D3*
X51746Y104553D3*
X23431Y103480D3*
X19221Y102324D3*
X43904Y71945D3*
X17075Y74339D3*
X36970Y62040D3*
X24917D3*
X22545Y108751D3*
X57442Y69552D3*
X50508Y98857D3*
X51581Y96050D3*
X69825Y71615D3*
X55378D3*
X65202Y105956D3*
X44152D3*
X64294Y93491D3*
X61735Y85566D3*
X51333D3*
X43986Y96380D3*
X47784D3*
X56617Y101663D3*
X62808D3*
X56617Y98361D3*
X63798D3*
X41427Y90437D3*
X50343Y90272D3*
X37795Y86227D3*
X46463Y88538D3*
X27476Y74587D3*
X60331Y77972D3*
X59176Y79045D3*
X41592D3*
X64376Y89198D3*
X67843D3*
X69247Y87135D3*
X50260Y55766D3*
X22441Y44044D3*
X38208Y69882D3*
Y60223D3*
X23266Y76981D3*
X46711Y80201D3*
X31274Y88290D3*
X37630Y89776D3*
X49187Y54775D3*
X13030Y41567D3*
X17075Y66827D3*
X36227Y86227D3*
X37795Y88290D3*
X42748Y89033D3*
X16993Y56591D3*
X34493Y70955D3*
X44069Y73349D3*
X34493D3*
X19799Y69386D3*
X37795Y104553D3*
X12542Y39688D3*
X12948Y61709D3*
X25165Y55766D3*
X53480Y59563D3*
Y56261D3*
X74447D3*
X26156Y47593D3*
X30283Y63360D3*
X72384D3*
X58433Y23406D3*
X57772Y39916D3*
X37630D3*
X43986Y50317D3*
X56617Y57334D3*
X31934Y22911D3*
X40272Y38843D3*
X52241Y31331D3*
X78080Y32322D3*
X103918Y50317D3*
X102184Y17793D3*
X59836Y23654D3*
X98552Y18040D3*
X68504Y17297D3*
X74035D3*
X77006Y52876D3*
Y45282D3*
X87160Y23406D3*
X80308Y23076D3*
X94755Y20765D3*
X74200Y37027D3*
X80556Y36779D3*
X97314Y27451D3*
X80143D3*
X71641Y37027D3*
X84023Y33230D3*
X20955Y27534D3*
X80804Y57334D3*
X71310D3*
X89719Y50317D3*
X55378Y32982D3*
X57112Y37027D3*
X104083Y24892D3*
X36227Y40329D3*
X38868Y31661D3*
X53562Y43053D3*
X41262Y34303D3*
Y31661D3*
X66605Y41072D3*
X69577Y33064D3*
X51333Y62287D3*
X52407Y58407D3*
X88811D3*
X101606Y21920D3*
X51581Y44374D3*
X62230Y64433D3*
X92443Y46272D3*
X100120Y31496D3*
X32192Y108118D2*
D15*
X35121D1*
X58227D2*
X65472D1*
X68843D2*
X74332D1*
X75987D2*
X76336D1*
X81901D2*
X99028D1*
X100693D2*
X102828D1*
X32827Y107487D2*
X35032D1*
X58316D2*
X65472D1*
X78934D2*
X80037D1*
X83141D2*
X83576D1*
X86316D2*
X88878D1*
X89580D2*
X90396D1*
X93142D2*
X93769D1*
X101189D2*
X102600D1*
X33452Y106855D2*
X35250D1*
X58098D2*
X64371D1*
X76840D2*
X80662D1*
X86316D2*
X88024D1*
X101258D2*
X102490D1*
X17379Y106223D2*
X31589D1*
X76781D2*
X81039D1*
X86494D2*
X87856D1*
X101020D2*
X102490D1*
X17269Y105592D2*
X32224D1*
X76414D2*
X81287D1*
X87129D2*
X88014D1*
X96853D2*
X102600D1*
X17051Y104960D2*
X18145D1*
X76176D2*
X84939D1*
X93142D2*
X94156D1*
X96367D2*
X102818D1*
X16694Y104328D2*
X17510D1*
X76176D2*
X85574D1*
X91297D2*
X93819D1*
X96704D2*
X103175D1*
X16138Y103697D2*
X16884D1*
X76176D2*
X86199D1*
X90662D2*
X93809D1*
X96714D2*
X103731D1*
X11341Y103065D2*
X11814D1*
X15186D2*
X16249D1*
X76176D2*
X94116D1*
X96406D2*
X104683D1*
X108055D2*
X108692D1*
X11341Y102433D2*
X15614D1*
X76176D2*
X94166D1*
X96347D2*
X108692D1*
X17488Y101802D2*
X18095D1*
X76404D2*
X80523D1*
X82377D2*
X90683D1*
X92537D2*
X93819D1*
X96704D2*
X108692D1*
X16853Y101170D2*
X18909D1*
X76771D2*
X80047D1*
X82853D2*
X90207D1*
X93013D2*
X93799D1*
X96714D2*
X108692D1*
X11852Y100538D2*
X19117D1*
X64825D2*
X65482D1*
X76840D2*
X79958D1*
X82942D2*
X90118D1*
X93102D2*
X94106D1*
X96416D2*
X108692D1*
X11852Y99907D2*
X17976D1*
X64190D2*
X65670D1*
X76642D2*
X80156D1*
X82734D2*
X90316D1*
X92894D2*
X105140D1*
X107281D2*
X108692D1*
X11852Y99275D2*
X17271D1*
X64607D2*
X66295D1*
X68020D2*
X74292D1*
X76017D2*
X76703D1*
X78884D2*
X80990D1*
X81910D2*
X91150D1*
X92070D2*
X104395D1*
X108025D2*
X108692D1*
X11852Y98643D2*
X17093D1*
X65013D2*
X76346D1*
X81027D2*
X104058D1*
X108362D2*
X108692D1*
X64994Y98012D2*
X76316D1*
X81613D2*
X103949D1*
X74310Y97380D2*
X76604D1*
X78983D2*
X79799D1*
X81712D2*
X84720D1*
X89550D2*
X104028D1*
X74965Y96748D2*
X79908D1*
X81712D2*
X84065D1*
X90205D2*
X104306D1*
X108114D2*
X108692D1*
X11852Y96117D2*
X17093D1*
X76285D2*
X77715D1*
X78825D2*
X79908D1*
X81712D2*
X82795D1*
X91525D2*
X92955D1*
X94065D2*
X104941D1*
X107479D2*
X108692D1*
X11852Y95485D2*
X15545D1*
X94809D2*
X108692D1*
X11852Y94853D2*
X14235D1*
X94997D2*
X105189D1*
X107231D2*
X108692D1*
X11852Y94222D2*
X13471D1*
X94878D2*
X104415D1*
X108005D2*
X108692D1*
X11852Y93590D2*
X13283D1*
X94352D2*
X104068D1*
X108352D2*
X108692D1*
X94799Y92958D2*
X103949D1*
X94997Y92327D2*
X104018D1*
X94888Y91695D2*
X104296D1*
X108124D2*
X108692D1*
X61352Y91063D2*
X62168D1*
X63892D2*
X64559D1*
X94372D2*
X104901D1*
X107519D2*
X108692D1*
X60092Y90432D2*
X64559D1*
X88032D2*
X88778D1*
X93112D2*
X108692D1*
X60092Y89800D2*
X63299D1*
X88032D2*
X88778D1*
X93112D2*
X105249D1*
X107172D2*
X108692D1*
X60092Y89168D2*
X63130D1*
X88032D2*
X88778D1*
X93112D2*
X104435D1*
X107985D2*
X108692D1*
X60092Y88537D2*
X63339D1*
X88032D2*
X88778D1*
X93112D2*
X104078D1*
X108342D2*
X108692D1*
X60092Y87905D2*
X63478D1*
X88032D2*
X88778D1*
X93112D2*
X103949D1*
X60092Y87273D2*
X63478D1*
X88032D2*
X88778D1*
X93112D2*
X104008D1*
X59854Y86642D2*
X61186D1*
X62285D2*
X63478D1*
X88032D2*
X88778D1*
X93112D2*
X104276D1*
X108144D2*
X108692D1*
X62890Y86010D2*
X63478D1*
X88032D2*
X88778D1*
X93112D2*
X104862D1*
X107558D2*
X108692D1*
X62960Y85378D2*
X63636D1*
X88032D2*
X88778D1*
X93112D2*
X108692D1*
X88032Y84747D2*
X88778D1*
X93112D2*
X108692D1*
X31031Y84115D2*
X37581D1*
X53236D2*
X62664D1*
X88032D2*
X88778D1*
X93112D2*
X108692D1*
X31031Y83483D2*
X37651D1*
X53157D2*
X62733D1*
X88032D2*
X88778D1*
X93112D2*
X108692D1*
X31031Y82852D2*
X38107D1*
X40010D2*
X40647D1*
X42550D2*
X43187D1*
X45090D2*
X45727D1*
X47630D2*
X48267D1*
X50170D2*
X50807D1*
X52710D2*
X63190D1*
X88032D2*
X88778D1*
X93112D2*
X108692D1*
X31031Y82220D2*
X63686D1*
X88032D2*
X88778D1*
X93112D2*
X108692D1*
X88032Y81588D2*
X88778D1*
X93112D2*
X108692D1*
X88032Y80957D2*
X88778D1*
X93112D2*
X108692D1*
X88032Y80325D2*
X88778D1*
X93112D2*
X108692D1*
X88032Y79693D2*
X88778D1*
X107797D2*
X108692D1*
X88032Y79062D2*
X88778D1*
X88032Y78430D2*
X88778D1*
X88032Y77798D2*
X88897D1*
X88032Y77167D2*
X89493D1*
X14422Y76535D2*
X15148D1*
X88032D2*
X106390D1*
X14422Y75903D2*
X15118D1*
X14422Y75272D2*
X15118D1*
X14422Y74640D2*
X15118D1*
X88300Y72745D2*
X90921D1*
X88300Y72113D2*
X90415D1*
X88300Y71482D2*
X90207D1*
X88300Y70850D2*
X90207D1*
X88300Y70218D2*
X90207D1*
X88300Y69587D2*
X90207D1*
X26546Y68955D2*
X27114D1*
X88300D2*
X90207D1*
X22588Y68323D2*
X27550D1*
X88300D2*
X90207D1*
X22548Y67692D2*
X33613D1*
X35288D2*
X36153D1*
X37828D2*
X38693D1*
X40368D2*
X41233D1*
X59249D2*
X61860D1*
X77852D2*
X86496D1*
X88300D2*
X90207D1*
X22141Y67060D2*
X33077D1*
X58594D2*
X62039D1*
X77674D2*
X86496D1*
X88300D2*
X90207D1*
X22320Y66428D2*
X32968D1*
X48632D2*
X62317D1*
X77396D2*
X86496D1*
X22588Y65797D2*
X33146D1*
X48454D2*
X68835D1*
X75253D2*
X86496D1*
X22548Y65165D2*
X28146D1*
X33164D2*
X33891D1*
X42630D2*
X44051D1*
X45170D2*
X46591D1*
X47710D2*
X61235D1*
X63218D2*
X86496D1*
X63466Y64533D2*
X86496D1*
X73497Y63902D2*
X86496D1*
X100921D2*
X102044D1*
X103084D2*
X104088D1*
X73626Y63270D2*
X86467D1*
X88300D2*
X88957D1*
X100921D2*
X104088D1*
X88241Y62638D2*
X88957D1*
X100921D2*
X104088D1*
X87705Y62007D2*
X88957D1*
X100921D2*
X104088D1*
X75937Y61375D2*
X88957D1*
X100921D2*
X104088D1*
X77227Y60743D2*
X88957D1*
X100921D2*
X104088D1*
X77634Y60112D2*
X88957D1*
X100921D2*
X104088D1*
X77674Y59480D2*
X88252D1*
X100921D2*
X104088D1*
X100921Y58848D2*
X104088D1*
X100921Y58217D2*
X104088D1*
X100921Y57585D2*
X104088D1*
X100921Y56953D2*
X104088D1*
X14422Y56322D2*
X15783D1*
X100921D2*
X104088D1*
X14422Y55690D2*
X16091D1*
X100921D2*
X104088D1*
X14422Y55058D2*
X16091D1*
X100921D2*
X104088D1*
X14422Y54427D2*
X16170D1*
X100911D2*
X104088D1*
X15910Y53795D2*
X16726D1*
X100524D2*
X104088D1*
X16228Y53163D2*
X17123D1*
X99859D2*
X104088D1*
X16357Y52532D2*
X17132D1*
X92110D2*
X104088D1*
X23987Y51900D2*
X31093D1*
X92428D2*
X104088D1*
X23927Y51268D2*
X31102D1*
X92547D2*
X103155D1*
X23927Y50637D2*
X31440D1*
X23927Y50005D2*
X31420D1*
X23927Y49373D2*
X31102D1*
X23927Y48742D2*
X25814D1*
X26497D2*
X31102D1*
X23927Y48110D2*
X25030D1*
X23927Y47478D2*
X24921D1*
X85492D2*
X86238D1*
X23927Y46847D2*
X25179D1*
X85492D2*
X86238D1*
X85492Y46215D2*
X86238D1*
X85492Y45583D2*
X86288D1*
X83309Y44952D2*
X83698D1*
X85492D2*
X86804D1*
X28680Y44320D2*
X32382D1*
X82674D2*
X83698D1*
X85492D2*
X94245D1*
X28054Y43688D2*
X32363D1*
X82039D2*
X83698D1*
X85492D2*
X94354D1*
X25842Y43057D2*
X32660D1*
X47680D2*
X48079D1*
X54804D2*
X60273D1*
X81414D2*
X83738D1*
X89788D2*
X94354D1*
X25802Y42425D2*
X29088D1*
X30644D2*
X48714D1*
X54625D2*
X60392D1*
X81077D2*
X84244D1*
X91247D2*
X91656D1*
X93787D2*
X94196D1*
X22270Y41793D2*
X22788D1*
X25802D2*
X27471D1*
X31071D2*
X60947D1*
X81077D2*
X88550D1*
X22201Y41162D2*
X22788D1*
X25802D2*
X26836D1*
X37123D2*
X61255D1*
X81077D2*
X88719D1*
X25802Y40530D2*
X26469D1*
X58842D2*
X60620D1*
X81077D2*
X88997D1*
X25802Y39898D2*
X26459D1*
X59021D2*
X59995D1*
X81077D2*
X89959D1*
X22280Y39267D2*
X22788D1*
X25802D2*
X26459D1*
X81077D2*
X89324D1*
X22191Y38635D2*
X22788D1*
X25802D2*
X26300D1*
X22290Y36740D2*
X22788D1*
X25802D2*
X26201D1*
X14660Y36108D2*
X22788D1*
X25802D2*
X27967D1*
X14025Y35477D2*
X22788D1*
X25802D2*
X27957D1*
X13400Y34845D2*
X16448D1*
X25802D2*
X27322D1*
X13152Y34213D2*
X14989D1*
X13152Y33582D2*
X14612D1*
X13152Y32950D2*
X14573D1*
X13152Y32318D2*
X14850D1*
X13152Y31687D2*
X24008D1*
X13152Y31055D2*
X24008D1*
X13152Y30423D2*
X19147D1*
X13152Y29792D2*
X18531D1*
X13152Y29160D2*
X18393D1*
X13152Y28528D2*
X18393D1*
X13152Y27897D2*
X18393D1*
X13152Y27265D2*
X18393D1*
X13152Y26633D2*
X18393D1*
X13152Y26002D2*
X18393D1*
X13152Y25370D2*
X18393D1*
X13152Y24738D2*
X18393D1*
X13152Y24107D2*
X18393D1*
X13152Y23475D2*
X18412D1*
X13152Y22843D2*
X18859D1*
X13152Y22212D2*
X19603D1*
X13459Y21580D2*
X20893D1*
X11341Y20317D2*
X11904D1*
X11341Y19685D2*
X12697D1*
X11341Y19053D2*
X20595D1*
X11341Y18422D2*
X20595D1*
X11341Y17790D2*
X20605D1*
X28094D2*
X36073D1*
X11341Y17158D2*
X12052D1*
X15265D2*
X20903D1*
X27459D2*
X36073D1*
X16257Y16527D2*
X36073D1*
X74995D2*
X91279D1*
X16823Y15895D2*
X36083D1*
X73318D2*
X91338D1*
X17200Y15263D2*
X20823D1*
X22687D2*
X23363D1*
X25227D2*
X25903D1*
X27767D2*
X28443D1*
X30307D2*
X30983D1*
X32847D2*
X33523D1*
X35387D2*
X36063D1*
X58882D2*
X61285D1*
X74757D2*
X75433D1*
X77297D2*
X77973D1*
X79837D2*
X83688D1*
X85552D2*
X86228D1*
X88092D2*
X88768D1*
X90632D2*
X91308D1*
X17418Y14632D2*
X20357D1*
X59348D2*
X61920D1*
X80303D2*
X83222D1*
X17537Y14000D2*
X20278D1*
X38472D2*
X41233D1*
X59427D2*
X62188D1*
X80382D2*
X83143D1*
X17537Y13368D2*
X20496D1*
X38254D2*
X41451D1*
X59209D2*
X62406D1*
X17438Y12737D2*
X21429D1*
X22073D2*
X23969D1*
X24613D2*
X26509D1*
X27153D2*
X29049D1*
X29693D2*
X31589D1*
X32233D2*
X34129D1*
X34773D2*
X36669D1*
X37313D2*
X42384D1*
X43028D2*
X44924D1*
X45568D2*
X47464D1*
X48108D2*
X50004D1*
X50648D2*
X52544D1*
X53188D2*
X55084D1*
X55728D2*
X57624D1*
X58268D2*
X63339D1*
X17220Y12105D2*
X64450D1*
X16863Y11473D2*
X65075D1*
X89701Y52233D2*
X89838Y52463D1*
X90057Y52692D1*
X90321Y52867D1*
X90618Y52979D1*
X90931Y53023D1*
X91247Y52996D1*
X91549Y52900D1*
X91822Y52740D1*
X92053Y52523D1*
X92231Y52260D1*
X92346Y51965D1*
X92393Y51600D1*
X92370Y51393D1*
X92594Y51161D1*
X99238Y51156D1*
X103078D1*
X103446Y51400D1*
X103750Y51487D1*
X104067Y51489D1*
X104153Y51466D1*
X104149Y64196D1*
X104002Y64346D1*
X103835Y64604D1*
X103678Y64366D1*
X103455Y64141D1*
X103187Y63971D1*
X102889Y63864D1*
X102575Y63826D1*
X102259Y63859D1*
X101959Y63960D1*
X101689Y64125D1*
X101462Y64346D1*
X101295Y64604D1*
X101138Y64366D1*
X100856Y64104D1*
X100860Y54540D1*
X100801Y54230D1*
X100614Y53947D1*
X99954Y53287D1*
X99693Y53110D1*
X99361Y53041D1*
X78178D1*
X78547Y52996D1*
X78849Y52900D1*
X79122Y52740D1*
X79353Y52523D1*
X79542Y52233D1*
X79678Y52463D1*
X79897Y52692D1*
X80161Y52867D1*
X80458Y52979D1*
X80771Y53023D1*
X81087Y52996D1*
X81389Y52900D1*
X81662Y52740D1*
X81893Y52523D1*
X82082Y52233D1*
X82218Y52463D1*
X82437Y52692D1*
X82701Y52867D1*
X82998Y52979D1*
X83311Y53023D1*
X83627Y52996D1*
X83929Y52900D1*
X84202Y52740D1*
X84433Y52523D1*
X84622Y52233D1*
X84758Y52463D1*
X84977Y52692D1*
X85241Y52867D1*
X85538Y52979D1*
X85851Y53023D1*
X86167Y52996D1*
X86469Y52900D1*
X86742Y52740D1*
X86973Y52523D1*
X87162Y52233D1*
X87298Y52463D1*
X87517Y52692D1*
X87781Y52867D1*
X88078Y52979D1*
X88391Y53023D1*
X88707Y52996D1*
X89009Y52900D1*
X89282Y52740D1*
X89513Y52523D1*
X89702Y52233D1*
X29158Y18269D2*
X28998Y18107D1*
X28731Y17937D1*
X28433Y17830D1*
X28029Y17801D1*
X27419Y17182D1*
X27162Y16999D1*
X26880Y16913D1*
X25476Y16903D1*
X21615D1*
X21304Y16956D1*
X21026Y17107D1*
X20814Y17341D1*
X20672Y17721D1*
X20663Y19126D1*
Y19647D1*
X13029D1*
X12718Y19699D1*
X12458Y19838D1*
X11467Y20815D1*
X11291Y21062D1*
X11278Y19850D1*
Y16645D1*
X11616Y16894D1*
X12179Y17187D1*
X12782Y17383D1*
X13409Y17477D1*
X14043Y17465D1*
X14667Y17350D1*
X15263Y17132D1*
X15815Y16820D1*
X16307Y16420D1*
X16727Y15945D1*
X17063Y15406D1*
X17304Y14820D1*
X17446Y14202D1*
X17485Y13659D1*
X17432Y13027D1*
X17276Y12412D1*
X17020Y11832D1*
X16672Y11301D1*
X16653Y11279D1*
X65342Y11278D1*
X63881Y12734D1*
X63678Y12712D1*
X63363Y12744D1*
X63063Y12846D1*
X62792Y13011D1*
X62565Y13232D1*
X62393Y13498D1*
X62283Y13795D1*
X62242Y14109D1*
X62265Y14356D1*
X61185Y15430D1*
X58545Y15431D1*
X58802Y15275D1*
X59033Y15058D1*
X59211Y14795D1*
X59326Y14500D1*
X59373Y14135D1*
X59338Y13820D1*
X59234Y13521D1*
X59066Y13252D1*
X58843Y13027D1*
X58576Y12857D1*
X58278Y12750D1*
X57963Y12712D1*
X57648Y12744D1*
X57348Y12846D1*
X57077Y13011D1*
X56850Y13232D1*
X56683Y13489D1*
X56526Y13252D1*
X56303Y13027D1*
X56036Y12857D1*
X55738Y12750D1*
X55423Y12712D1*
X55108Y12744D1*
X54808Y12846D1*
X54537Y13011D1*
X54310Y13232D1*
X54143Y13489D1*
X53986Y13252D1*
X53763Y13027D1*
X53496Y12857D1*
X53198Y12750D1*
X52883Y12712D1*
X52568Y12744D1*
X52268Y12846D1*
X51997Y13011D1*
X51770Y13232D1*
X51603Y13489D1*
X51446Y13252D1*
X51223Y13027D1*
X50956Y12857D1*
X50658Y12750D1*
X50343Y12712D1*
X50028Y12744D1*
X49728Y12846D1*
X49457Y13011D1*
X49230Y13232D1*
X49063Y13489D1*
X48906Y13252D1*
X48683Y13027D1*
X48416Y12857D1*
X48118Y12750D1*
X47803Y12712D1*
X47488Y12744D1*
X47188Y12846D1*
X46917Y13011D1*
X46690Y13232D1*
X46523Y13489D1*
X46366Y13252D1*
X46143Y13027D1*
X45876Y12857D1*
X45578Y12750D1*
X45263Y12712D1*
X44948Y12744D1*
X44648Y12846D1*
X44377Y13011D1*
X44150Y13232D1*
X43983Y13489D1*
X43826Y13252D1*
X43603Y13027D1*
X43336Y12857D1*
X43038Y12750D1*
X42723Y12712D1*
X42408Y12744D1*
X42108Y12846D1*
X41837Y13011D1*
X41610Y13232D1*
X41438Y13498D1*
X41328Y13795D1*
X41287Y14109D1*
X41317Y14425D1*
X41357Y14547D1*
X38359Y14542D1*
X38418Y14135D1*
X38383Y13820D1*
X38279Y13521D1*
X38111Y13252D1*
X37888Y13027D1*
X37621Y12857D1*
X37323Y12750D1*
X37008Y12712D1*
X36693Y12744D1*
X36393Y12846D1*
X36122Y13011D1*
X35895Y13232D1*
X35728Y13489D1*
X35571Y13252D1*
X35348Y13027D1*
X35081Y12857D1*
X34783Y12750D1*
X34468Y12712D1*
X34153Y12744D1*
X33853Y12846D1*
X33582Y13011D1*
X33355Y13232D1*
X33188Y13489D1*
X33031Y13252D1*
X32808Y13027D1*
X32541Y12857D1*
X32243Y12750D1*
X31928Y12712D1*
X31613Y12744D1*
X31313Y12846D1*
X31042Y13011D1*
X30815Y13232D1*
X30648Y13489D1*
X30491Y13252D1*
X30268Y13027D1*
X30001Y12857D1*
X29703Y12750D1*
X29388Y12712D1*
X29073Y12744D1*
X28773Y12846D1*
X28502Y13011D1*
X28275Y13232D1*
X28108Y13489D1*
X27951Y13252D1*
X27728Y13027D1*
X27461Y12857D1*
X27163Y12750D1*
X26848Y12712D1*
X26533Y12744D1*
X26233Y12846D1*
X25962Y13011D1*
X25735Y13232D1*
X25568Y13489D1*
X25411Y13252D1*
X25188Y13027D1*
X24921Y12857D1*
X24623Y12750D1*
X24308Y12712D1*
X23993Y12744D1*
X23693Y12846D1*
X23422Y13011D1*
X23195Y13232D1*
X23028Y13489D1*
X22871Y13252D1*
X22648Y13027D1*
X22381Y12857D1*
X22083Y12750D1*
X21768Y12712D1*
X21453Y12744D1*
X21153Y12846D1*
X20882Y13011D1*
X20655Y13232D1*
X20483Y13498D1*
X20373Y13795D1*
X20332Y14109D1*
X20362Y14425D1*
X20460Y14726D1*
X20623Y14998D1*
X20842Y15227D1*
X21106Y15402D1*
X21403Y15514D1*
X21716Y15558D1*
X22032Y15531D1*
X22334Y15435D1*
X22607Y15275D1*
X22838Y15058D1*
X23027Y14768D1*
X23163Y14998D1*
X23382Y15227D1*
X23646Y15402D1*
X23943Y15514D1*
X24256Y15558D1*
X24572Y15531D1*
X24874Y15435D1*
X25147Y15275D1*
X25378Y15058D1*
X25567Y14768D1*
X25703Y14998D1*
X25922Y15227D1*
X26186Y15402D1*
X26483Y15514D1*
X26796Y15558D1*
X27112Y15531D1*
X27414Y15435D1*
X27687Y15275D1*
X27918Y15058D1*
X28107Y14768D1*
X28243Y14998D1*
X28462Y15227D1*
X28726Y15402D1*
X29023Y15514D1*
X29336Y15558D1*
X29652Y15531D1*
X29954Y15435D1*
X30227Y15275D1*
X30458Y15058D1*
X30647Y14768D1*
X30783Y14998D1*
X31002Y15227D1*
X31266Y15402D1*
X31563Y15514D1*
X31876Y15558D1*
X32192Y15531D1*
X32494Y15435D1*
X32767Y15275D1*
X32998Y15058D1*
X33187Y14768D1*
X33323Y14998D1*
X33542Y15227D1*
X33806Y15402D1*
X34103Y15514D1*
X34416Y15558D1*
X34732Y15531D1*
X35034Y15435D1*
X35307Y15275D1*
X35538Y15058D1*
X35727Y14768D1*
X35863Y14998D1*
X36082Y15227D1*
X36411Y15426D1*
X36200Y15709D1*
X36132Y16040D1*
Y17856D1*
X35738Y17792D1*
X35423Y17824D1*
X35123Y17926D1*
X34852Y18091D1*
X34675Y18264D1*
X34247Y18263D1*
X34078Y18107D1*
X33811Y17937D1*
X33513Y17830D1*
X33198Y17792D1*
X32883Y17824D1*
X32583Y17926D1*
X32312Y18091D1*
X32085Y18312D1*
X31918Y18569D1*
X31761Y18332D1*
X31538Y18107D1*
X31271Y17937D1*
X30973Y17830D1*
X30658Y17792D1*
X30343Y17824D1*
X30043Y17926D1*
X29772Y18091D1*
X29595Y18264D1*
X29167Y18263D1*
X17243Y98129D2*
X17198Y98250D1*
X17157Y98564D1*
X17187Y98880D1*
X17285Y99181D1*
X17448Y99453D1*
X17667Y99682D1*
X17931Y99857D1*
X18228Y99969D1*
X18541Y100013D1*
X18650Y100003D1*
X20257Y101614D1*
X19783Y101285D1*
X19487Y101173D1*
X19172Y101144D1*
X18860Y101199D1*
X18574Y101336D1*
X18335Y101543D1*
X18160Y101807D1*
X18060Y102107D1*
X18047Y102433D1*
X16608Y100989D1*
X16347Y100812D1*
X16015Y100744D1*
X11798D1*
X11793Y97625D1*
X11839Y97779D1*
X11988Y98059D1*
X12205Y98289D1*
X12475Y98453D1*
X12780Y98540D1*
X13096Y98543D1*
X13402Y98461D1*
X13675Y98301D1*
X13834Y98138D1*
X17240Y98133D1*
X17243Y95589D2*
X17198Y95710D1*
X17157Y96024D1*
X17187Y96340D1*
X17227Y96462D1*
X13694Y96457D1*
X13509Y96332D1*
X13213Y96220D1*
X12898Y96191D1*
X12586Y96246D1*
X12301Y96383D1*
X12061Y96590D1*
X11886Y96854D1*
X11790Y97145D1*
X11793Y93022D1*
X11990Y93053D1*
X13428D1*
X13388Y93170D1*
X13347Y93484D1*
X13377Y93800D1*
X13475Y94101D1*
X13638Y94373D1*
X13857Y94602D1*
X14121Y94777D1*
X14418Y94889D1*
X14731Y94933D1*
X14978Y94912D1*
X15423Y95348D1*
X15684Y95525D1*
X16015Y95593D1*
X17236D1*
X17243Y52409D2*
X17198Y52530D1*
X17157Y52844D1*
X17187Y53160D1*
X17258Y53376D1*
X17060Y53523D1*
X16400Y54183D1*
X16223Y54444D1*
X16154Y54775D1*
Y55758D1*
X15931Y56074D1*
X15832Y56374D1*
X15816Y56691D1*
X15882Y56990D1*
X15396Y56672D1*
X15098Y56565D1*
X14783Y56527D1*
X14468Y56559D1*
X14365Y56594D1*
X14363Y54239D1*
X14731Y54293D1*
X15047Y54266D1*
X15349Y54170D1*
X15622Y54010D1*
X15853Y53793D1*
X16031Y53530D1*
X16146Y53235D1*
X16193Y52870D1*
X16170Y52663D1*
X16408Y52417D1*
X17226Y52413D1*
X22526Y42869D2*
X22543Y42710D1*
X22508Y42395D1*
X22404Y42096D1*
X22236Y41827D1*
X22013Y41602D1*
X21759Y41435D1*
X21972Y41310D1*
X22203Y41093D1*
X22381Y40830D1*
X22496Y40535D1*
X22543Y40170D1*
X22508Y39855D1*
X22404Y39556D1*
X22236Y39287D1*
X22013Y39062D1*
X21759Y38895D1*
X21972Y38770D1*
X22203Y38553D1*
X22381Y38290D1*
X22496Y37995D1*
X22543Y37630D1*
X22508Y37315D1*
X22404Y37016D1*
X22236Y36747D1*
X22013Y36522D1*
X21746Y36352D1*
X21448Y36245D1*
X21133Y36207D1*
X20818Y36239D1*
X20518Y36341D1*
X20247Y36506D1*
X20020Y36727D1*
X19848Y36991D1*
X19696Y36747D1*
X19473Y36522D1*
X19206Y36352D1*
X18908Y36245D1*
X18593Y36207D1*
X18278Y36239D1*
X17978Y36341D1*
X17707Y36506D1*
X17530Y36679D1*
X15832Y36678D1*
X15663Y36522D1*
X15396Y36352D1*
X15098Y36245D1*
X14694Y36216D1*
X13093Y34606D1*
Y21874D1*
X13425Y21551D1*
X20917Y21552D1*
X21143Y21682D1*
X21448Y21769D1*
X21607Y21779D1*
X21632Y22045D1*
X21672Y22167D1*
X19952Y22162D1*
X19642Y22221D1*
X19359Y22408D1*
X18699Y23068D1*
X18522Y23329D1*
X18454Y23660D1*
Y29325D1*
X18513Y29635D1*
X18699Y29918D1*
X19359Y30578D1*
X19620Y30755D1*
X19952Y30823D1*
X23891D1*
X24067Y30993D1*
X24071Y31830D1*
X23673Y31762D1*
X23358Y31794D1*
X23058Y31896D1*
X22787Y32061D1*
X22560Y32282D1*
X22388Y32546D1*
X22236Y32302D1*
X22013Y32077D1*
X21746Y31907D1*
X21448Y31800D1*
X21133Y31762D1*
X20818Y31794D1*
X20518Y31896D1*
X20247Y32061D1*
X20020Y32282D1*
X19848Y32546D1*
X19696Y32302D1*
X19473Y32077D1*
X19206Y31907D1*
X18908Y31800D1*
X18593Y31762D1*
X18278Y31794D1*
X17978Y31896D1*
X17707Y32061D1*
X17480Y32282D1*
X17308Y32546D1*
X17156Y32302D1*
X16933Y32077D1*
X16666Y31907D1*
X16368Y31800D1*
X16053Y31762D1*
X15738Y31794D1*
X15438Y31896D1*
X15167Y32061D1*
X14940Y32282D1*
X14768Y32548D1*
X14658Y32845D1*
X14617Y33159D1*
X14647Y33475D1*
X14745Y33776D1*
X14908Y34048D1*
X15127Y34277D1*
X15391Y34452D1*
X15688Y34564D1*
X16001Y34608D1*
X16248Y34587D1*
X16693Y35023D1*
X16954Y35200D1*
X17285Y35268D1*
X22673D1*
X22847Y35438D1*
Y42710D1*
X22470Y68540D2*
X22542Y68162D1*
X22508Y67795D1*
X22404Y67496D1*
X22236Y67227D1*
X22013Y67002D1*
X21759Y66835D1*
X21972Y66710D1*
X22203Y66493D1*
X22381Y66230D1*
X22496Y65935D1*
X22543Y65570D1*
X22508Y65255D1*
X22459Y65115D1*
X23821Y65113D1*
X24138Y65051D1*
X24297Y64964D1*
X24643Y64926D1*
X27828D1*
X28065Y65109D1*
X28355Y65196D1*
X32862Y65202D1*
X33180Y65137D1*
X33261Y65099D1*
X33579Y65375D1*
X33352Y65596D1*
X33179Y65861D1*
X33070Y66159D1*
X33029Y66473D1*
X33059Y66788D1*
X33157Y67089D1*
X33320Y67361D1*
X33539Y67590D1*
X33803Y67765D1*
X34099Y67877D1*
X34413Y67921D1*
X34729Y67895D1*
X35031Y67799D1*
X35304Y67638D1*
X35535Y67422D1*
X35723Y67131D1*
X35860Y67361D1*
X36079Y67590D1*
X36343Y67765D1*
X36639Y67877D1*
X36953Y67921D1*
X37269Y67895D1*
X37571Y67799D1*
X37844Y67638D1*
X38075Y67422D1*
X38263Y67131D1*
X38400Y67361D1*
X38619Y67590D1*
X38883Y67765D1*
X39179Y67877D1*
X39493Y67921D1*
X39809Y67895D1*
X40111Y67799D1*
X40384Y67638D1*
X40615Y67422D1*
X40803Y67131D1*
X40940Y67361D1*
X41159Y67590D1*
X41423Y67765D1*
X41719Y67877D1*
X42033Y67921D1*
X42280Y67900D1*
X42253Y67971D1*
X28302D1*
X27992Y68030D1*
X27720Y68208D1*
X27588Y68374D1*
X27416Y68523D1*
X27240Y68787D1*
X27141Y69087D1*
X27125Y69403D1*
X27179Y69645D1*
X26324Y68794D1*
X26063Y68617D1*
X25731Y68548D1*
X22467D1*
X90123Y39998D2*
X89877Y40023D1*
X89577Y40124D1*
X89306Y40290D1*
X89079Y40511D1*
X88907Y40776D1*
X88797Y41074D1*
X88756Y41388D1*
X88779Y41634D1*
X88583Y41824D1*
X85255Y41820D1*
X84945Y41880D1*
X84663Y42066D1*
X84003Y42726D1*
X83825Y42987D1*
X83757Y43319D1*
Y45472D1*
X81017Y42725D1*
X81014Y39350D1*
X80949Y39032D1*
X80973Y39098D1*
X81102Y38868D1*
X88990D1*
X90111Y39991D1*
X89974Y42813D2*
X90140Y42836D1*
X90456Y42809D1*
X90758Y42714D1*
X91031Y42553D1*
X91262Y42336D1*
X91450Y42047D1*
X91587Y42276D1*
X91806Y42505D1*
X92070Y42680D1*
X92367Y42792D1*
X92680Y42836D1*
X92996Y42809D1*
X93298Y42714D1*
X93571Y42553D1*
X93802Y42336D1*
X93990Y42047D1*
X94127Y42276D1*
X94420Y42554D1*
X94421Y44202D1*
X94252Y44374D1*
X87795D1*
X87485Y44433D1*
X87203Y44619D1*
X86543Y45279D1*
X86365Y45540D1*
X86297Y45872D1*
X86301Y47705D1*
X85903Y47637D1*
X85588Y47669D1*
X85428Y47723D1*
X85433Y43658D1*
X85603Y43497D1*
X88934D1*
X89244Y43437D1*
X89527Y43251D1*
X89955Y42823D1*
X35367Y106791D2*
X35243Y106982D1*
X35134Y107279D1*
X35093Y107593D1*
X35123Y107909D1*
X35236Y108236D1*
X32020Y108231D1*
X33457Y106790D1*
X35357Y106794D1*
X17313Y106210D2*
X17208Y105585D1*
X17001Y104985D1*
X16699Y104428D1*
X16308Y103928D1*
X15840Y103500D1*
X15307Y103155D1*
X14726Y102903D1*
X14110Y102750D1*
X13478Y102702D1*
X12846Y102758D1*
X12232Y102918D1*
X11653Y103177D1*
X11277Y103417D1*
X11278Y102410D1*
X11647Y102420D1*
X15665D1*
X18393Y105145D1*
X18654Y105323D1*
X18986Y105391D1*
X32489D1*
X31102Y106774D1*
X18724Y106769D1*
X18462Y106568D1*
X18166Y106456D1*
X17851Y106427D1*
X17539Y106483D1*
X17334Y106581D1*
X17313Y106210D1*
X25746Y34525D2*
X25848Y34564D1*
X26161Y34608D1*
X26477Y34581D1*
X26779Y34485D1*
X26941Y34390D1*
X28024Y35483D1*
X28030Y36249D1*
X27912Y36199D1*
X27601Y36138D1*
X27284Y36144D1*
X26975Y36216D1*
X26689Y36352D1*
X26437Y36545D1*
X26232Y36786D1*
X26082Y37065D1*
X25995Y37370D1*
X25973Y37686D1*
X26018Y38000D1*
X26129Y38297D1*
X26299Y38564D1*
X26515Y38783D1*
X26518Y40387D1*
X26570Y40699D1*
X26708Y40959D1*
X27685Y41949D1*
X27943Y42133D1*
X28225Y42219D1*
X28944Y42228D1*
X29128Y42403D1*
X29398Y42567D1*
X29703Y42654D1*
X30019Y42656D1*
X30325Y42575D1*
X30598Y42415D1*
X30819Y42188D1*
X30972Y41911D1*
X31046Y41603D1*
X31052Y41485D1*
X31005Y41162D1*
X35391Y41167D1*
X35755Y41411D1*
X36059Y41498D1*
X36376Y41501D1*
X36681Y41419D1*
X36955Y41259D1*
X37190Y41006D1*
X37462Y41085D1*
X37779Y41088D1*
X38085Y41006D1*
X38358Y40846D1*
X38448Y40754D1*
X56948D1*
X57030Y40834D1*
X57300Y40999D1*
X57605Y41085D1*
X57921Y41088D1*
X58227Y41006D1*
X58500Y40846D1*
X58721Y40620D1*
X58874Y40342D1*
X58947Y40034D1*
X58920Y39671D1*
X59848Y39681D1*
X61743Y41581D1*
X61457Y41611D1*
X61157Y41712D1*
X60887Y41877D1*
X60660Y42098D1*
X60487Y42364D1*
X60378Y42661D1*
X60337Y42975D1*
X60360Y43222D1*
X60038Y43538D1*
X54642Y43536D1*
X54737Y43171D1*
X54743Y43053D1*
X54701Y42739D1*
X54577Y42448D1*
X54380Y42200D1*
X54124Y42014D1*
X53828Y41902D1*
X53513Y41873D1*
X53201Y41929D1*
X52915Y42065D1*
X52743Y42214D1*
X49333Y42215D1*
X49023Y42274D1*
X48740Y42460D1*
X48074Y43127D1*
X47662Y43122D1*
X47413Y42852D1*
X47146Y42682D1*
X46848Y42575D1*
X46533Y42537D1*
X46218Y42569D1*
X45918Y42671D1*
X45647Y42836D1*
X45420Y43057D1*
X45253Y43314D1*
X45096Y43077D1*
X44873Y42852D1*
X44606Y42682D1*
X44308Y42575D1*
X43993Y42537D1*
X43678Y42569D1*
X43378Y42671D1*
X43107Y42836D1*
X42880Y43057D1*
X42713Y43314D1*
X42556Y43077D1*
X42333Y42852D1*
X42066Y42682D1*
X41768Y42575D1*
X41453Y42537D1*
X41138Y42569D1*
X40838Y42671D1*
X40567Y42836D1*
X40340Y43057D1*
X40173Y43314D1*
X40016Y43077D1*
X39793Y42852D1*
X39526Y42682D1*
X39228Y42575D1*
X38913Y42537D1*
X38598Y42569D1*
X38298Y42671D1*
X38027Y42836D1*
X37800Y43057D1*
X37633Y43314D1*
X37476Y43077D1*
X37253Y42852D1*
X36986Y42682D1*
X36688Y42575D1*
X36373Y42537D1*
X36058Y42569D1*
X35758Y42671D1*
X35487Y42836D1*
X35260Y43057D1*
X35093Y43314D1*
X34936Y43077D1*
X34713Y42852D1*
X34446Y42682D1*
X34148Y42575D1*
X33833Y42537D1*
X33518Y42569D1*
X33218Y42671D1*
X32947Y42836D1*
X32720Y43057D1*
X32548Y43323D1*
X32438Y43620D1*
X32397Y43934D1*
X32427Y44250D1*
X32522Y44541D1*
X28841Y44539D1*
X27738Y43437D1*
X27477Y43260D1*
X27146Y43192D1*
X25905D1*
X25743Y43023D1*
Y34530D1*
X15823Y77324D2*
X15663Y77162D1*
X15396Y76992D1*
X15098Y76885D1*
X14783Y76847D1*
X14468Y76879D1*
X14365Y76914D1*
X14363Y74559D1*
X14731Y74613D1*
X15047Y74586D1*
X15170Y74547D1*
X15177Y76315D1*
X15236Y76625D1*
X15423Y76908D1*
X15836Y77322D1*
X108384Y87479D2*
X108316Y87169D1*
X108204Y86872D1*
X108050Y86595D1*
X107858Y86342D1*
X107632Y86120D1*
X107376Y85933D1*
X107095Y85784D1*
X106797Y85678D1*
X106486Y85615D1*
X106169Y85598D1*
X105853Y85627D1*
X105544Y85701D1*
X105250Y85819D1*
X104975Y85978D1*
X104726Y86175D1*
X104509Y86405D1*
X104326Y86665D1*
X104183Y86948D1*
X104082Y87249D1*
X104026Y87561D1*
X104015Y87878D1*
X104049Y88193D1*
X104129Y88500D1*
X104252Y88792D1*
X104416Y89064D1*
X104618Y89309D1*
X104852Y89522D1*
X105115Y89700D1*
X105401Y89838D1*
X105704Y89933D1*
X106017Y89984D1*
X106334Y89989D1*
X106649Y89948D1*
X106954Y89862D1*
X107244Y89734D1*
X107512Y89565D1*
X107754Y89359D1*
X107963Y89120D1*
X108135Y88854D1*
X108268Y88566D1*
X108357Y88261D1*
X108407Y87795D1*
X108384Y87479D1*
Y92559D2*
X108316Y92249D1*
X108204Y91952D1*
X108050Y91675D1*
X107858Y91422D1*
X107632Y91200D1*
X107376Y91013D1*
X107095Y90864D1*
X106797Y90758D1*
X106486Y90695D1*
X106169Y90678D1*
X105853Y90707D1*
X105544Y90781D1*
X105250Y90899D1*
X104975Y91058D1*
X104726Y91255D1*
X104509Y91485D1*
X104326Y91745D1*
X104183Y92028D1*
X104082Y92329D1*
X104026Y92641D1*
X104015Y92958D1*
X104049Y93273D1*
X104129Y93580D1*
X104252Y93872D1*
X104416Y94144D1*
X104618Y94389D1*
X104852Y94602D1*
X105115Y94780D1*
X105401Y94918D1*
X105704Y95013D1*
X106017Y95064D1*
X106334Y95069D1*
X106649Y95028D1*
X106954Y94942D1*
X107244Y94814D1*
X107512Y94645D1*
X107754Y94439D1*
X107963Y94200D1*
X108135Y93934D1*
X108268Y93646D1*
X108357Y93341D1*
X108407Y92875D1*
X108384Y92559D1*
Y97639D2*
X108316Y97329D1*
X108204Y97032D1*
X108050Y96755D1*
X107858Y96502D1*
X107632Y96280D1*
X107376Y96093D1*
X107095Y95944D1*
X106797Y95838D1*
X106486Y95775D1*
X106169Y95758D1*
X105853Y95787D1*
X105544Y95861D1*
X105250Y95979D1*
X104975Y96138D1*
X104726Y96335D1*
X104509Y96565D1*
X104326Y96825D1*
X104183Y97108D1*
X104082Y97409D1*
X104026Y97721D1*
X104015Y98038D1*
X104049Y98353D1*
X104129Y98660D1*
X104252Y98952D1*
X104416Y99224D1*
X104618Y99469D1*
X104852Y99682D1*
X105115Y99860D1*
X105401Y99998D1*
X105704Y100093D1*
X106017Y100144D1*
X106334Y100149D1*
X106649Y100108D1*
X106954Y100022D1*
X107244Y99894D1*
X107512Y99725D1*
X107754Y99519D1*
X107963Y99280D1*
X108135Y99014D1*
X108268Y98726D1*
X108357Y98421D1*
X108407Y97955D1*
X108384Y97639D1*
X78952Y97431D2*
X78704Y97162D1*
X78438Y96990D1*
X78141Y96880D1*
X77827Y96838D1*
X77512Y96866D1*
X77210Y96963D1*
X76937Y97123D1*
X76705Y97340D1*
X76527Y97602D1*
X76411Y97896D1*
X76362Y98209D1*
X76383Y98526D1*
X76473Y98829D1*
X76627Y99106D1*
X76838Y99342D1*
X77096Y99526D1*
X77388Y99649D1*
X77700Y99705D1*
X78017Y99691D1*
X78323Y99608D1*
X78603Y99459D1*
X78843Y99253D1*
X78944Y99119D1*
X80150Y99111D1*
X80460Y99052D1*
X80743Y98866D1*
X81403Y98205D1*
X81580Y97944D1*
X81648Y97613D1*
X81662Y95920D1*
X81893Y95703D1*
X82081Y95413D1*
X82218Y95643D1*
X82437Y95872D1*
X82701Y96047D1*
X82998Y96159D1*
X83311Y96203D1*
X83627Y96176D1*
X83769Y96131D1*
X83793Y96269D1*
X83940Y96548D1*
X84663Y97278D1*
X84924Y97455D1*
X85255Y97524D1*
X89015D1*
X89325Y97464D1*
X89608Y97278D1*
X90268Y96618D1*
X90447Y96347D1*
X90516Y96120D1*
X90618Y96159D1*
X90931Y96203D1*
X91247Y96176D1*
X91549Y96080D1*
X91822Y95920D1*
X92053Y95703D1*
X92241Y95413D1*
X92378Y95643D1*
X92597Y95872D1*
X92861Y96047D1*
X93158Y96159D1*
X93471Y96203D1*
X93787Y96176D1*
X94089Y96080D1*
X94362Y95920D1*
X94593Y95703D1*
X94771Y95440D1*
X94886Y95145D1*
X94933Y94780D1*
X94898Y94465D1*
X94794Y94166D1*
X94626Y93897D1*
X94403Y93672D1*
X94149Y93505D1*
X94362Y93380D1*
X94593Y93163D1*
X94771Y92900D1*
X94886Y92605D1*
X94933Y92240D1*
X94898Y91925D1*
X94794Y91626D1*
X94626Y91357D1*
X94403Y91132D1*
X94136Y90962D1*
X93838Y90855D1*
X93523Y90817D1*
X93208Y90849D1*
X93048Y90903D1*
X93053Y82105D1*
Y79992D1*
X93223Y79815D1*
X107295D1*
X107605Y79755D1*
X107888Y79569D1*
X108548Y78909D1*
X108750Y78588D1*
X108746Y103532D1*
X108450Y103317D1*
X107891Y103017D1*
X107290Y102814D1*
X106663Y102713D1*
X106029Y102717D1*
X105404Y102825D1*
X104806Y103035D1*
X104250Y103342D1*
X103753Y103735D1*
X103328Y104206D1*
X102986Y104740D1*
X102737Y105324D1*
X102588Y105940D1*
X102543Y106573D1*
X102603Y107204D1*
X102767Y107817D1*
X103029Y108394D1*
X103260Y108753D1*
X81197Y108750D1*
X82284Y107671D1*
X82585Y107665D1*
X82891Y107582D1*
X83168Y107429D1*
X83400Y107213D1*
X83573Y106948D1*
X83635Y106771D1*
X83632Y107678D1*
X86248D1*
Y106418D1*
X87627Y105030D1*
X88670D1*
X88473Y105142D1*
X88238Y105354D1*
X88061Y105617D1*
X87953Y105914D1*
X87919Y106229D1*
X87961Y106543D1*
X88078Y106837D1*
X88262Y107095D1*
X88503Y107301D1*
X88786Y107443D1*
X89095Y107513D1*
X89412Y107506D1*
X89718Y107424D1*
X89995Y107270D1*
X90227Y107055D1*
X90400Y106789D1*
X90462Y106612D1*
X90459Y107519D1*
X93075D1*
Y107450D1*
X93329Y107481D1*
X93835D1*
X93837Y107952D1*
X96683D1*
X96685Y107867D1*
X96966Y107953D1*
X98371Y107963D1*
X98916D1*
X98983Y108034D1*
X99246Y108210D1*
X99543Y108320D1*
X99857Y108358D1*
X100172Y108322D1*
X100469Y108213D1*
X100733Y108037D1*
X100949Y107805D1*
X101104Y107529D1*
X101191Y107225D1*
X101208Y107010D1*
X101171Y106696D1*
X101061Y106398D1*
X100885Y106135D1*
X100653Y105920D1*
X100377Y105765D1*
X100072Y105679D1*
X99755Y105666D1*
X99445Y105728D1*
X99157Y105860D1*
X98902Y106064D1*
X97489Y106058D1*
X97293Y105855D1*
X97035Y105672D1*
X96749Y105585D1*
X96683Y105412D1*
Y105106D1*
X96137D1*
X96343Y104912D1*
X96520Y104649D1*
X96635Y104354D1*
X96683Y103989D1*
X96648Y103674D1*
X96544Y103375D1*
X96376Y103106D1*
X96153Y102881D1*
X95894Y102716D1*
X96112Y102588D1*
X96343Y102372D1*
X96520Y102109D1*
X96635Y101814D1*
X96683Y101449D1*
X96648Y101134D1*
X96544Y100835D1*
X96376Y100566D1*
X96153Y100341D1*
X95886Y100171D1*
X95587Y100064D1*
X95273Y100026D1*
X94958Y100058D1*
X94657Y100159D1*
X94387Y100325D1*
X94160Y100546D1*
X93987Y100811D1*
X93878Y101109D1*
X93837Y101423D1*
X93866Y101738D1*
X93965Y102039D1*
X94128Y102311D1*
X94347Y102540D1*
X94620Y102719D1*
X94387Y102865D1*
X94160Y103086D1*
X93987Y103351D1*
X93878Y103649D1*
X93837Y103963D1*
X93866Y104278D1*
X93965Y104579D1*
X94128Y104851D1*
X94388Y105108D1*
X93837Y105106D1*
Y105572D1*
X93700Y105553D1*
X93447Y105364D1*
X93151Y105270D1*
X93075Y104903D1*
X91815D1*
X90307Y103404D1*
X90049Y103221D1*
X89768Y103135D1*
X88363Y103125D1*
X87232D1*
X86920Y103178D1*
X86660Y103316D1*
X85660Y104302D1*
X84895Y105067D1*
X83632Y105062D1*
Y105925D1*
X83557Y105760D1*
X83376Y105499D1*
X83138Y105290D1*
X82857Y105144D1*
X82549Y105070D1*
X82232Y105073D1*
X81926Y105151D1*
X81646Y105301D1*
X81411Y105513D1*
X81234Y105776D1*
X81126Y106073D1*
X81092Y106388D1*
X81104Y106476D1*
X79990Y107594D1*
X78958Y107595D1*
X78704Y107322D1*
X78438Y107150D1*
X78141Y107040D1*
X77827Y106998D1*
X77512Y107026D1*
X77210Y107123D1*
X76937Y107283D1*
X76705Y107500D1*
X76527Y107762D1*
X76411Y108056D1*
X76362Y108369D1*
X76402Y108752D1*
X57695D1*
X57919Y108542D1*
X58097Y108280D1*
X58211Y107984D1*
X58259Y107619D1*
X58224Y107304D1*
X58120Y107005D1*
X57989Y106795D1*
X64362Y106794D1*
X64730Y107039D1*
X65034Y107125D1*
X65351Y107128D1*
X65532Y107079D1*
X65535Y108311D1*
X68781D1*
Y107646D1*
X73836Y107640D1*
X73994Y107818D1*
X74236Y108023D1*
X74513Y108177D1*
X74815Y108274D1*
X75129Y108310D1*
X75445Y108285D1*
X75750Y108199D1*
X76033Y108055D1*
X76282Y107859D1*
X76488Y107618D1*
X76644Y107342D1*
X76742Y107040D1*
X76781Y106687D1*
X76750Y106372D1*
X76659Y106069D1*
X76510Y105789D1*
X76309Y105543D1*
X76103Y105373D1*
X76111Y102247D1*
X76104Y102146D1*
X76282Y101859D1*
X76488Y101618D1*
X76644Y101342D1*
X76742Y101040D1*
X76781Y100687D1*
X76750Y100372D1*
X76659Y100069D1*
X76510Y99789D1*
X76309Y99543D1*
X76065Y99341D1*
X75786Y99191D1*
X75483Y99097D1*
X75168Y99064D1*
X74852Y99093D1*
X74548Y99183D1*
X74267Y99331D1*
X74021Y99530D1*
X73774Y99851D1*
X68540Y99849D1*
X68309Y99543D1*
X68065Y99341D1*
X67786Y99191D1*
X67483Y99097D1*
X67168Y99064D1*
X66852Y99093D1*
X66548Y99183D1*
X66267Y99331D1*
X66021Y99530D1*
X65817Y99773D1*
X65665Y100051D1*
X65570Y100353D1*
X65535Y100668D1*
X65562Y100984D1*
X65655Y101297D1*
X65524Y101294D1*
X63768Y99546D1*
X63947Y99533D1*
X64253Y99452D1*
X64526Y99292D1*
X64747Y99065D1*
X64900Y98788D1*
X64974Y98480D1*
X64980Y98361D1*
X64937Y98048D1*
X64813Y97757D1*
X64622Y97517D1*
X67631Y97524D1*
X73775D1*
X74085Y97464D1*
X74368Y97278D1*
X75028Y96618D1*
X75207Y96347D1*
X75276Y96120D1*
X75378Y96159D1*
X75691Y96203D1*
X76007Y96176D1*
X76309Y96080D1*
X76582Y95920D1*
X76813Y95703D1*
X77001Y95413D1*
X77138Y95643D1*
X77357Y95872D1*
X77621Y96047D1*
X77918Y96159D1*
X78231Y96203D1*
X78547Y96176D1*
X78849Y96080D1*
X79122Y95920D1*
X79353Y95703D1*
X79541Y95413D1*
X79678Y95643D1*
X79971Y95921D1*
X79972Y97270D1*
X79803Y97435D1*
X78969D1*
X93008Y100339D2*
X92905Y100040D1*
X92739Y99770D1*
X92517Y99544D1*
X92251Y99371D1*
X91954Y99262D1*
X91640Y99220D1*
X91324Y99248D1*
X91023Y99344D1*
X90749Y99505D1*
X90518Y99721D1*
X90340Y99983D1*
X90223Y100278D1*
X90174Y100591D1*
X90195Y100907D1*
X90285Y101211D1*
X90440Y101488D1*
X90651Y101724D1*
X90909Y101908D1*
X91201Y102030D1*
X91513Y102086D1*
X91830Y102072D1*
X92135Y101989D1*
X92415Y101841D1*
X92656Y101635D1*
X92846Y101381D1*
X92975Y101092D1*
X93043Y100654D1*
X93008Y100339D1*
X82848D2*
X82745Y100040D1*
X82579Y99770D1*
X82357Y99544D1*
X82091Y99371D1*
X81794Y99262D1*
X81480Y99220D1*
X81164Y99248D1*
X80863Y99344D1*
X80589Y99505D1*
X80358Y99721D1*
X80180Y99983D1*
X80063Y100278D1*
X80014Y100591D1*
X80035Y100907D1*
X80125Y101211D1*
X80280Y101488D1*
X80491Y101724D1*
X80749Y101908D1*
X81041Y102030D1*
X81353Y102086D1*
X81670Y102072D1*
X81975Y101989D1*
X82255Y101841D1*
X82496Y101635D1*
X82686Y101381D1*
X82815Y101092D1*
X82883Y100654D1*
X82848Y100339D1*
X26254Y46427D2*
X26106Y46413D1*
X25794Y46469D1*
X25509Y46605D1*
X25269Y46812D1*
X25094Y47076D1*
X24995Y47376D1*
X24979Y47693D1*
X25047Y48002D1*
X25196Y48281D1*
X25413Y48512D1*
X25683Y48676D1*
X25988Y48762D1*
X26304Y48765D1*
X26610Y48683D1*
X26883Y48523D1*
X26973Y48431D1*
X31274Y48432D1*
X31168Y48720D1*
X31127Y49034D1*
X31157Y49350D1*
X31255Y49651D1*
X31418Y49923D1*
X31637Y50152D1*
X31911Y50330D1*
X31677Y50476D1*
X31450Y50697D1*
X31278Y50963D1*
X31168Y51260D1*
X31127Y51574D1*
X31157Y51890D1*
X31197Y52012D1*
X25717Y52007D1*
X24041D1*
X23864Y51838D1*
Y46083D1*
X23951Y46134D1*
X24253Y46228D1*
X26062Y46233D1*
X75131Y16884D2*
X75049Y16693D1*
X74852Y16445D1*
X74596Y16258D1*
X74300Y16147D1*
X73985Y16117D1*
X73673Y16173D1*
X73388Y16309D1*
X73216Y16458D1*
X69327Y16453D1*
X69065Y16258D1*
X68964Y16220D1*
X72580Y16218D1*
X72890Y16159D1*
X73173Y15973D1*
X73620Y15534D1*
X73786Y15558D1*
X74102Y15531D1*
X74404Y15435D1*
X74677Y15275D1*
X74908Y15058D1*
X75097Y14768D1*
X75233Y14998D1*
X75452Y15227D1*
X75716Y15402D1*
X76013Y15514D1*
X76326Y15558D1*
X76642Y15531D1*
X76944Y15435D1*
X77217Y15275D1*
X77448Y15058D1*
X77637Y14768D1*
X77773Y14998D1*
X77992Y15227D1*
X78256Y15402D1*
X78553Y15514D1*
X78866Y15558D1*
X79182Y15531D1*
X79484Y15435D1*
X79757Y15275D1*
X79988Y15058D1*
X80166Y14795D1*
X80281Y14500D1*
X80328Y14135D1*
X80293Y13820D1*
X80173Y13496D1*
X83345Y13500D1*
X83238Y13795D1*
X83197Y14109D1*
X83227Y14425D1*
X83325Y14726D1*
X83488Y14998D1*
X83707Y15227D1*
X83971Y15402D1*
X84268Y15514D1*
X84581Y15558D1*
X84897Y15531D1*
X85199Y15435D1*
X85472Y15275D1*
X85703Y15058D1*
X85892Y14768D1*
X86028Y14998D1*
X86247Y15227D1*
X86511Y15402D1*
X86808Y15514D1*
X87121Y15558D1*
X87437Y15531D1*
X87739Y15435D1*
X88012Y15275D1*
X88243Y15058D1*
X88432Y14768D1*
X88568Y14998D1*
X88787Y15227D1*
X89051Y15402D1*
X89348Y15514D1*
X89661Y15558D1*
X89977Y15531D1*
X90279Y15435D1*
X90552Y15275D1*
X90783Y15058D1*
X90972Y14768D1*
X91108Y14998D1*
X91401Y15276D1*
X91402Y16467D1*
X91233Y16637D1*
X75730D1*
X75420Y16696D1*
X75149Y16874D1*
X75201Y16826D1*
X85759Y67700D2*
X77791D1*
X77604Y67511D1*
X77629Y67293D1*
X77594Y66978D1*
X77490Y66678D1*
X77322Y66410D1*
X77099Y66185D1*
X76832Y66014D1*
X76534Y65908D1*
X76219Y65869D1*
X75904Y65902D1*
X75604Y66003D1*
X75477Y66081D1*
X74844Y65455D1*
X74583Y65278D1*
X74251Y65209D1*
X69831D1*
X69521Y65269D1*
X69239Y65455D1*
X68811Y65883D1*
X68599Y65869D1*
X68284Y65902D1*
X67984Y66003D1*
X67713Y66169D1*
X67486Y66389D1*
X67319Y66647D1*
X67162Y66410D1*
X66939Y66185D1*
X66672Y66014D1*
X66374Y65908D1*
X66059Y65869D1*
X65744Y65902D1*
X65444Y66003D1*
X65173Y66169D1*
X64946Y66389D1*
X64779Y66647D1*
X64622Y66410D1*
X64399Y66185D1*
X64132Y66014D1*
X63834Y65908D1*
X63519Y65869D1*
X63204Y65902D1*
X62904Y66003D1*
X62633Y66169D1*
X62406Y66389D1*
X62234Y66655D1*
X62124Y66953D1*
X62083Y67267D1*
X62106Y67513D1*
X61910Y67703D1*
X59195Y67700D1*
X58641Y67151D1*
X58380Y66974D1*
X58048Y66906D1*
X48509Y66910D1*
X48574Y66550D1*
X48540Y66184D1*
X48436Y65885D1*
X48268Y65616D1*
X48045Y65391D1*
X47778Y65221D1*
X47479Y65114D1*
X47165Y65076D1*
X46850Y65108D1*
X46549Y65209D1*
X46279Y65375D1*
X46052Y65596D1*
X45885Y65853D1*
X45728Y65616D1*
X45505Y65391D1*
X45238Y65221D1*
X44939Y65114D1*
X44625Y65076D1*
X44310Y65108D1*
X44009Y65209D1*
X43739Y65375D1*
X43512Y65596D1*
X43345Y65853D1*
X43188Y65616D1*
X42965Y65391D1*
X42698Y65221D1*
X42399Y65114D1*
X42085Y65076D1*
X41858Y65099D1*
X41746Y64987D1*
X61181Y64991D1*
X61270Y65121D1*
X61487Y65352D1*
X61758Y65516D1*
X62062Y65603D1*
X62379Y65605D1*
X62685Y65524D1*
X62958Y65364D1*
X63179Y65137D1*
X63332Y64860D1*
X63405Y64552D1*
X63378Y64188D1*
X64891Y64199D1*
X71548D1*
X71911Y64443D1*
X72216Y64529D1*
X72532Y64532D1*
X72838Y64450D1*
X73111Y64290D1*
X73332Y64064D1*
X73485Y63787D1*
X73559Y63479D1*
X73532Y63115D1*
X74193Y63125D1*
X86387D1*
X86558Y63295D1*
Y67859D1*
X86471Y67798D1*
X86169Y67705D1*
X85759Y67700D1*
X31138Y82042D2*
X52133D1*
X52477Y81968D1*
X52670Y81852D1*
X63385D1*
X64085Y82547D1*
X63839Y82572D1*
X63539Y82674D1*
X63268Y82839D1*
X63041Y83060D1*
X62869Y83326D1*
X62759Y83623D1*
X62718Y83937D1*
X62748Y84253D1*
X62847Y84554D1*
X63009Y84826D1*
X63228Y85055D1*
X63492Y85230D1*
X63742Y85324D1*
X63637Y85474D1*
X63543Y85775D1*
X63538Y88359D1*
X63315Y88681D1*
X63215Y88982D1*
X63199Y89298D1*
X63268Y89607D1*
X63416Y89886D1*
X63634Y90117D1*
X63904Y90281D1*
X64209Y90368D1*
X64525Y90370D1*
X64611Y90347D1*
X64619Y91192D1*
X64470Y91337D1*
X64298Y91601D1*
X64146Y91357D1*
X63923Y91132D1*
X63656Y90962D1*
X63358Y90855D1*
X63043Y90817D1*
X62728Y90849D1*
X62428Y90951D1*
X62157Y91116D1*
X61930Y91337D1*
X61758Y91601D1*
X61606Y91357D1*
X61383Y91132D1*
X61116Y90962D1*
X60818Y90855D1*
X60503Y90817D1*
X60188Y90849D1*
X60028Y90903D1*
X60033Y87230D1*
X59974Y86920D1*
X59788Y86637D1*
X59556Y86405D1*
X60908Y86404D1*
X60992Y86485D1*
X61262Y86649D1*
X61567Y86735D1*
X61884Y86738D1*
X62189Y86656D1*
X62463Y86496D1*
X62683Y86270D1*
X62836Y85992D1*
X62910Y85685D1*
X62916Y85566D1*
X62873Y85253D1*
X62749Y84961D1*
X62552Y84714D1*
X62296Y84527D1*
X62000Y84415D1*
X61685Y84386D1*
X61373Y84442D1*
X61088Y84578D1*
X60916Y84727D1*
X52954Y84728D1*
X53132Y84328D1*
X53179Y83963D1*
X53144Y83648D1*
X53040Y83349D1*
X52872Y83080D1*
X52649Y82855D1*
X52382Y82685D1*
X52084Y82578D1*
X51769Y82540D1*
X51454Y82572D1*
X51154Y82674D1*
X50883Y82839D1*
X50656Y83060D1*
X50489Y83317D1*
X50332Y83080D1*
X50109Y82855D1*
X49842Y82685D1*
X49544Y82578D1*
X49229Y82540D1*
X48914Y82572D1*
X48614Y82674D1*
X48343Y82839D1*
X48116Y83060D1*
X47949Y83317D1*
X47792Y83080D1*
X47569Y82855D1*
X47302Y82685D1*
X47004Y82578D1*
X46689Y82540D1*
X46374Y82572D1*
X46074Y82674D1*
X45803Y82839D1*
X45576Y83060D1*
X45409Y83317D1*
X45252Y83080D1*
X45029Y82855D1*
X44762Y82685D1*
X44464Y82578D1*
X44149Y82540D1*
X43834Y82572D1*
X43534Y82674D1*
X43263Y82839D1*
X43036Y83060D1*
X42869Y83317D1*
X42712Y83080D1*
X42489Y82855D1*
X42222Y82685D1*
X41924Y82578D1*
X41609Y82540D1*
X41294Y82572D1*
X40994Y82674D1*
X40723Y82839D1*
X40496Y83060D1*
X40329Y83317D1*
X40172Y83080D1*
X39949Y82855D1*
X39682Y82685D1*
X39384Y82578D1*
X39069Y82540D1*
X38754Y82572D1*
X38454Y82674D1*
X38183Y82839D1*
X37956Y83060D1*
X37784Y83326D1*
X37674Y83623D1*
X37633Y83937D1*
X37663Y84253D1*
X37703Y84375D1*
X31145Y84370D1*
X30969Y84201D1*
Y82216D1*
X106288Y76733D2*
X90335D1*
X90025Y76793D1*
X89743Y76979D1*
X89083Y77639D1*
X88905Y77900D1*
X88837Y78232D1*
X88841Y90885D1*
X88443Y90817D1*
X88128Y90849D1*
X87968Y90903D1*
X87973Y82105D1*
Y76420D1*
X88143Y76253D1*
X105975D1*
X106293Y76188D1*
X106228Y76212D1*
X106457Y76352D1*
Y76561D1*
X87765Y62130D2*
X87329Y61694D1*
X87068Y61517D1*
X86736Y61449D1*
X76259D1*
X76138Y61111D1*
X76483Y61088D1*
X76785Y60993D1*
X77058Y60832D1*
X77290Y60615D1*
X77467Y60353D1*
X77582Y60058D1*
X77629Y59693D1*
X77594Y59378D1*
X77545Y59237D1*
X80347Y59246D1*
X87976D1*
X88339Y59490D1*
X88643Y59576D1*
X89027Y59561D1*
X89024Y63827D1*
X88439Y63826D1*
Y66672D1*
X90274D1*
X90269Y71555D1*
X90328Y71865D1*
X90514Y72147D1*
X90998Y72631D1*
X90979Y72824D1*
X91008Y73139D1*
X91048Y73261D1*
X88408Y73256D1*
X88235Y73087D1*
Y62947D1*
X88175Y62637D1*
X87989Y62355D1*
X87765Y62130D1*
D16*
X32550Y92240D3*
X35090D3*
X37630D3*
X40170D3*
X42710D3*
X45250D3*
X47790D3*
X50330D3*
X52870D3*
X55410D3*
X57950D3*
X60490D3*
X63030D3*
X65570D3*
X68110D3*
X70650D3*
X73190D3*
X75730D3*
X78270D3*
X80810D3*
X83350D3*
X85890D3*
X88430D3*
X90970D3*
X93510D3*
Y94780D3*
X90970D3*
X88430D3*
X85890D3*
X83350D3*
X80810D3*
X78270D3*
X75730D3*
X73190D3*
X70650D3*
X68110D3*
X65570D3*
X63030D3*
X60490D3*
X57950D3*
X55410D3*
X52870D3*
X50330D3*
X47790D3*
X45250D3*
X42710D3*
X40170D3*
X37630D3*
X35090D3*
X32550D3*
Y49060D3*
X35090D3*
X37630D3*
X40170D3*
X42710D3*
X45250D3*
X47790D3*
X50330D3*
X52870D3*
X55410D3*
X57950D3*
X60490D3*
X63030D3*
X65570D3*
X68110D3*
X70650D3*
X73190D3*
X75730D3*
X78270D3*
X80810D3*
X83350D3*
X85890D3*
X88430D3*
X90970D3*
X93510D3*
Y51600D3*
X90970D3*
X88430D3*
X85890D3*
X83350D3*
X80810D3*
X78270D3*
X75730D3*
X73190D3*
X70650D3*
X68110D3*
X65570D3*
X63030D3*
X60490D3*
X57950D3*
X55410D3*
X52870D3*
X50330D3*
X47790D3*
X45250D3*
X42710D3*
X40170D3*
X37630D3*
X35090D3*
X32550D3*
X23025Y19215D3*
X25565D3*
X28105D3*
X30645D3*
X33185D3*
X35725D3*
X38265D3*
X40805D3*
X43345D3*
X45885D3*
X48425D3*
X50965D3*
X53505D3*
X56045D3*
X58585D3*
X61125D3*
X63665D3*
X66205D3*
X68745D3*
X71285D3*
X73825D3*
X76365D3*
X78905D3*
X81445D3*
X83985D3*
Y21755D3*
X81445D3*
X78905D3*
X76365D3*
X73825D3*
X71285D3*
X68745D3*
X66205D3*
X63665D3*
X61125D3*
X58585D3*
X56045D3*
X53505D3*
X50965D3*
X48425D3*
X45885D3*
X43345D3*
X40805D3*
X38265D3*
X35725D3*
X33185D3*
X30645D3*
X28105D3*
X25565D3*
X23025D3*
Y26200D3*
X25565D3*
X28105D3*
X30645D3*
X33185D3*
X35725D3*
X38265D3*
X40805D3*
X43345D3*
X45885D3*
X48425D3*
X50965D3*
X53505D3*
X56045D3*
X58585D3*
X61125D3*
X63665D3*
X66205D3*
X68745D3*
X71285D3*
X73825D3*
X76365D3*
X78905D3*
X81445D3*
X83985D3*
Y28740D3*
X81445D3*
X78905D3*
X76365D3*
X73825D3*
X71285D3*
X68745D3*
X66205D3*
X63665D3*
X61125D3*
X58585D3*
X56045D3*
X53505D3*
X50965D3*
X48425D3*
X45885D3*
X43345D3*
X40805D3*
X38265D3*
X35725D3*
X33185D3*
X30645D3*
X28105D3*
X25565D3*
X23025D3*
X18580Y98590D3*
Y96050D3*
Y93510D3*
Y90970D3*
Y88430D3*
Y85890D3*
Y83350D3*
Y80810D3*
Y78270D3*
Y75730D3*
Y73190D3*
Y70650D3*
Y68110D3*
Y65570D3*
Y63030D3*
Y60490D3*
Y57950D3*
Y55410D3*
Y52870D3*
Y50330D3*
Y47790D3*
Y45250D3*
Y42710D3*
Y40170D3*
Y37630D3*
X21120D3*
Y40170D3*
Y42710D3*
Y45250D3*
Y47790D3*
Y50330D3*
Y52870D3*
Y55410D3*
Y57950D3*
Y60490D3*
Y63030D3*
Y65570D3*
Y68110D3*
Y70650D3*
Y73190D3*
Y75730D3*
Y78270D3*
Y80810D3*
Y83350D3*
Y85890D3*
Y88430D3*
Y90970D3*
Y93510D3*
Y96050D3*
Y98590D3*
D17*
X31912Y58899D3*
D18*
X34452D3*
X36992D3*
X39532D3*
X42072D3*
X44612D3*
X47152D3*
Y66499D3*
X44612D3*
X42072D3*
X39532D3*
X36992D3*
X34452D3*
X31912D3*
D17*
X60966Y59693D3*
D18*
X63506D3*
X66046D3*
X68586D3*
X71126D3*
X73666D3*
X76206D3*
Y67293D3*
X73666D3*
X71126D3*
X68586D3*
X66046D3*
X63506D3*
X60966D3*
D17*
X36516Y76363D3*
D18*
X39056D3*
X41596D3*
X44136D3*
X46676D3*
X49216D3*
X51756D3*
Y83963D3*
X49216D3*
X46676D3*
X44136D3*
X41596D3*
X39056D3*
X36516D3*
D17*
X59220Y35401D3*
D18*
X61760D3*
X64300D3*
X66840D3*
X69380D3*
X71920D3*
X74460D3*
Y43001D3*
X71920D3*
X69380D3*
X66840D3*
X64300D3*
X61760D3*
X59220D3*
D17*
X31280Y36360D3*
D18*
X33820D3*
X36360D3*
X38900D3*
X41440D3*
X43980D3*
X46520D3*
Y43960D3*
X43980D3*
X41440D3*
X38900D3*
X36360D3*
X33820D3*
X31280D3*
D17*
X89862Y65249D3*
D18*
X92402D3*
X94942D3*
X97482D3*
X100022D3*
X102562D3*
X105102D3*
Y72849D3*
X102562D3*
X100022D3*
X97482D3*
X94942D3*
X92402D3*
X89862D3*
D17*
X87639Y33814D3*
D18*
X90179D3*
X92719D3*
X95259D3*
X97799D3*
X100339D3*
X102879D3*
Y41414D3*
X100339D3*
X97799D3*
X95259D3*
X92719D3*
X90179D3*
X87639D3*
D17*
X33976Y100019D3*
D18*
X36516D3*
X39056D3*
X41596D3*
X44136D3*
X46676D3*
X49216D3*
X51756D3*
X54296D3*
X56836D3*
X33976Y107619D3*
X36516D3*
X39056D3*
X41596D3*
X44136D3*
X46676D3*
X49216D3*
X51756D3*
X54296D3*
X56836D3*
D19*
X27470Y37630D3*
Y42710D3*
X54774Y36513D3*
Y41593D3*
X83352Y34925D3*
Y40005D3*
X85416Y71441D3*
Y66361D3*
X30959Y106211D3*
Y101131D3*
X32388Y83349D3*
Y78269D3*
X56679Y60963D3*
Y66043D3*
X26990Y60328D3*
Y65408D3*
D17*
X27470Y83350D3*
D18*
X24930D3*
X27470Y85890D3*
X24930D3*
X27470Y88430D3*
X24930D3*
X27470Y90970D3*
X24930D3*
X27470Y93510D3*
X24930D3*
X27470Y96050D3*
X24930D3*
X27470Y98590D3*
X24930D3*
D20*
X99860Y93510D3*
D21*
Y107010D3*
D17*
X19215Y14135D3*
D18*
X21755D3*
X24295D3*
X26835D3*
X29375D3*
X31915D3*
X34455D3*
X36995D3*
D17*
X40170D3*
D18*
X42710D3*
X45250D3*
X47790D3*
X50330D3*
X52870D3*
X55410D3*
X57950D3*
D17*
X61125D3*
D18*
X63665D3*
X66205D3*
X68745D3*
X71285D3*
X73825D3*
X76365D3*
X78905D3*
D17*
X82080D3*
D18*
X84620D3*
X87160D3*
X89700D3*
X92240D3*
X94780D3*
X97320D3*
X99860D3*
D17*
X13500Y33185D3*
D18*
X16040D3*
X18580D3*
X21120D3*
X23660D3*
X26200D3*
X28740D3*
X31280D3*
D17*
X14770Y96050D3*
D18*
Y93510D3*
Y90970D3*
Y88430D3*
Y85890D3*
Y83350D3*
Y80810D3*
Y78270D3*
D17*
Y75730D3*
D18*
Y73190D3*
Y70650D3*
Y68110D3*
Y65570D3*
Y63030D3*
Y60490D3*
Y57950D3*
D17*
Y55410D3*
D18*
Y52870D3*
Y50330D3*
Y47790D3*
Y45250D3*
Y42710D3*
Y40170D3*
Y37630D3*
D22*
X106210Y82715D3*
Y87795D3*
Y92875D3*
Y97955D3*
D17*
X24930Y80810D3*
D18*
X27470D3*
D17*
X61601Y76363D3*
D18*
X64141D3*
X66681D3*
X69221D3*
X71761D3*
X74301D3*
X76841D3*
Y83963D3*
X74301D3*
X71761D3*
X69221D3*
X66681D3*
X64141D3*
X61601D3*
D17*
X95260Y106529D3*
D18*
Y103989D3*
Y101449D3*
D23*
X82400Y106370D3*
D24*
X84940D3*
D25*
X77795Y98273D3*
D26*
Y108433D3*
D23*
X89227Y106211D3*
D24*
X91767D3*
D25*
X91608Y100654D3*
D26*
X81448D3*
D27*
X67158Y106687D3*
D28*
Y100687D3*
X75158D3*
Y106687D3*
M02*
