M48
METRIC,0000.00
T01C0.486
T02C0.711
T03C0.8
T04C0.9
T05C0.965
T06C1.0
T07C1.2
T08C1.778
T09C3.505
%
T01
X+001187Y+009605
X+001295Y+009737
X+001922Y+010232
X+002343Y+010348
X+002254Y+010875
X+001790Y+010761
X+002913Y+009324
X+003127Y+008829
X+003623Y+008623
X+003780Y+008623
X+003780Y+008829
X+003763Y+008978
X+004143Y+009044
X+004275Y+008903
X+004539Y+008755
X+004646Y+008854
X+005034Y+009027
X+005133Y+008557
X+004671Y+008020
X+004159Y+007904
X+004407Y+007335
X+004390Y+007195
X+004134Y+007095
X+003821Y+006988
X+003449Y+007095
X+003449Y+007335
X+003210Y+007327
X+003210Y+006988
X+002830Y+006930
X+002624Y+007360
X+002748Y+007459
X+002327Y+007698
X+001708Y+007434
X+001980Y+006939
X+001708Y+006683
X+001295Y+006171
X+001699Y+005659
X+002517Y+005577
X+002492Y+006204
X+003028Y+006336
X+003697Y+006204
X+003821Y+006022
X+004399Y+005032
X+004919Y+005478
X+005026Y+005577
X+005348Y+005626
X+005241Y+005841
X+005348Y+005956
X+005133Y+006229
X+005662Y+005733
X+006223Y+006443
X+005744Y+006955
X+005538Y+007162
X+006033Y+007797
X+005918Y+007904
X+005777Y+008202
X+006173Y+008557
X+006438Y+008920
X+006784Y+008920
X+006925Y+008713
X+006429Y+009349
X+006380Y+009836
X+006281Y+010166
X+006520Y+010596
X+007403Y+010348
X+005662Y+010166
X+005662Y+009836
X+005158Y+009605
X+005051Y+009886
X+004778Y+009638
X+004399Y+009638
X+004143Y+009630
X+003524Y+009729
X+003780Y+010455
X+003623Y+010596
X+004168Y+010348
X+004415Y+010596
X+005175Y+010455
X+006982Y+007162
X+007238Y+006336
X+007131Y+005733
X+007445Y+005626
X+007701Y+005288
X+008080Y+005733
X+008881Y+005841
X+008972Y+005032
X+009244Y+004627
X+009418Y+004421
X+008766Y+004421
X+008056Y+003678
X+008402Y+003323
X+007808Y+003232
X+008014Y+002745
X+008031Y+002308
X+008204Y+001647
X+007403Y+001730
X+006850Y+001730
X+005984Y+002365
X+005843Y+002341
X+005538Y+003298
X+005224Y+003133
X+005711Y+003703
X+005777Y+003992
X+005356Y+004305
X+005158Y+004437
X+004027Y+003884
X+003763Y+003992
X+003623Y+004033
X+002987Y+004148
X+002616Y+004759
X+002747Y+004957
X+002409Y+004957
X+002244Y+004404
X+001303Y+004157
X+001254Y+003969
X+002095Y+002753
X+002162Y+002060
X+003193Y+002291
X+003887Y+003166
X+004126Y+003166
X+004126Y+003430
X+006661Y+004107
X+006661Y+004586
X+007329Y+004586
X+007701Y+004528
X+007420Y+003703
X+007164Y+003703
X+006958Y+003306
X+008716Y+002341
X+009079Y+001647
X+009475Y+002076
X+009855Y+001804
X+010218Y+001779
X+010161Y+002192
X+010408Y+002489
X+009731Y+002745
X+010012Y+003150
X+010392Y+005032
X+009987Y+007657
X+008988Y+007657
T02
X+008240Y+010637
X+008494Y+010637
X+008923Y+010621
X+009177Y+010621
T03
X+009986Y+009351
X+009986Y+010701
T04
X+003255Y+009224
X+003509Y+009224
X+003763Y+009224
X+004017Y+009224
X+004271Y+009224
X+004525Y+009224
X+004779Y+009224
X+005033Y+009224
X+005287Y+009224
X+005541Y+009224
X+005795Y+009224
X+006049Y+009224
X+006303Y+009224
X+006557Y+009224
X+006811Y+009224
X+007065Y+009224
X+007319Y+009224
X+007573Y+009224
X+007827Y+009224
X+008081Y+009224
X+008335Y+009224
X+008589Y+009224
X+008843Y+009224
X+009097Y+009224
X+009351Y+009224
X+009351Y+009478
X+009097Y+009478
X+008843Y+009478
X+008589Y+009478
X+008335Y+009478
X+008081Y+009478
X+007827Y+009478
X+007573Y+009478
X+007319Y+009478
X+007065Y+009478
X+006811Y+009478
X+006557Y+009478
X+006303Y+009478
X+006049Y+009478
X+005795Y+009478
X+005541Y+009478
X+005287Y+009478
X+005033Y+009478
X+004779Y+009478
X+004525Y+009478
X+004271Y+009478
X+004017Y+009478
X+003763Y+009478
X+003509Y+009478
X+003255Y+009478
X+002747Y+009605
X+002747Y+009859
X+002493Y+009859
X+002493Y+009605
X+002493Y+009351
X+002493Y+009097
X+002493Y+008843
X+002493Y+008589
X+002493Y+008335
X+002493Y+008081
X+002747Y+008081
X+002747Y+008335
X+002747Y+008589
X+002747Y+008843
X+002747Y+009097
X+002747Y+009351
X+002112Y+009351
X+002112Y+009605
X+001858Y+009605
X+001858Y+009351
X+001858Y+009097
X+001858Y+008843
X+001858Y+008589
X+001858Y+008335
X+001858Y+008081
X+001858Y+007827
X+001858Y+007573
X+001858Y+007319
X+001858Y+007065
X+001858Y+006811
X+001858Y+006557
X+001858Y+006303
X+001858Y+006049
X+001858Y+005795
X+001858Y+005541
X+001858Y+005287
X+001858Y+005033
X+001858Y+004779
X+001858Y+004525
X+001858Y+004271
X+001858Y+004017
X+001858Y+003763
X+002112Y+003763
X+002112Y+004017
X+002112Y+004271
X+002112Y+004525
X+002112Y+004779
X+002112Y+005033
X+002112Y+005287
X+002112Y+005541
X+002112Y+005795
X+002112Y+006049
X+002112Y+006303
X+002112Y+006557
X+002112Y+006811
X+002112Y+007065
X+002112Y+007319
X+002112Y+007573
X+002112Y+007827
X+002112Y+008081
X+002112Y+008335
X+002112Y+008589
X+002112Y+008843
X+002112Y+009097
X+001477Y+009097
X+001477Y+009351
X+001477Y+009605
X+001858Y+009859
X+002112Y+009859
X+001477Y+008843
X+001477Y+008589
X+001477Y+008335
X+001477Y+008081
X+001477Y+007827
X+001477Y+007573
X+001477Y+007319
X+001477Y+007065
X+001477Y+006811
X+001477Y+006557
X+001477Y+006303
X+001477Y+006049
X+001477Y+005795
X+001477Y+005541
X+001477Y+005287
X+001477Y+005033
X+001477Y+004779
X+001477Y+004525
X+001477Y+004271
X+001477Y+004017
X+001477Y+003763
X+001350Y+003319
X+001604Y+003319
X+001858Y+003319
X+002112Y+003319
X+002366Y+003319
X+002620Y+003319
X+002874Y+003319
X+003128Y+003319
X+003128Y+003636
X+003382Y+003636
X+003636Y+003636
X+003890Y+003636
X+004144Y+003636
X+004398Y+003636
X+004652Y+003636
X+004652Y+004396
X+004398Y+004396
X+004144Y+004396
X+003890Y+004396
X+003636Y+004396
X+003382Y+004396
X+003128Y+004396
X+003255Y+004906
X+003255Y+005160
X+003509Y+005160
X+003763Y+005160
X+004017Y+005160
X+004271Y+005160
X+004525Y+005160
X+004779Y+005160
X+005033Y+005160
X+005287Y+005160
X+005541Y+005160
X+005795Y+005160
X+006049Y+005160
X+006303Y+005160
X+006557Y+005160
X+006811Y+005160
X+007065Y+005160
X+007319Y+005160
X+007573Y+005160
X+007827Y+005160
X+007827Y+004906
X+007573Y+004906
X+007319Y+004906
X+007065Y+004906
X+006811Y+004906
X+006557Y+004906
X+006303Y+004906
X+006049Y+004906
X+005795Y+004906
X+005541Y+004906
X+005287Y+004906
X+005033Y+004906
X+004779Y+004906
X+004525Y+004906
X+004271Y+004906
X+004017Y+004906
X+003763Y+004906
X+003509Y+004906
X+003445Y+005890
X+003191Y+005890
X+003699Y+005890
X+003953Y+005890
X+004207Y+005890
X+004461Y+005890
X+004715Y+005890
X+004715Y+006650
X+004461Y+006650
X+004207Y+006650
X+003953Y+006650
X+003699Y+006650
X+003445Y+006650
X+003191Y+006650
X+003652Y+007636
X+003906Y+007636
X+004160Y+007636
X+004414Y+007636
X+004668Y+007636
X+004922Y+007636
X+005176Y+007636
X+005176Y+008396
X+004922Y+008396
X+004668Y+008396
X+004414Y+008396
X+004160Y+008396
X+003906Y+008396
X+003652Y+008396
X+003652Y+010002
X+003398Y+010002
X+003906Y+010002
X+004160Y+010002
X+004414Y+010002
X+004668Y+010002
X+004922Y+010002
X+005176Y+010002
X+005430Y+010002
X+005684Y+010002
X+005684Y+010762
X+005430Y+010762
X+005176Y+010762
X+004922Y+010762
X+004668Y+010762
X+004414Y+010762
X+004160Y+010762
X+003906Y+010762
X+003652Y+010762
X+003398Y+010762
X+006160Y+008396
X+006414Y+008396
X+006668Y+008396
X+006922Y+008396
X+007176Y+008396
X+007430Y+008396
X+007684Y+008396
X+007684Y+007636
X+007430Y+007636
X+007176Y+007636
X+006922Y+007636
X+006668Y+007636
X+006414Y+007636
X+006160Y+007636
X+006097Y+006729
X+006351Y+006729
X+006605Y+006729
X+006859Y+006729
X+007113Y+006729
X+007367Y+006729
X+007621Y+006729
X+007621Y+005969
X+007367Y+005969
X+007113Y+005969
X+006859Y+005969
X+006605Y+005969
X+006351Y+005969
X+006097Y+005969
X+006176Y+004300
X+005922Y+004300
X+006430Y+004300
X+006684Y+004300
X+006938Y+004300
X+007192Y+004300
X+007446Y+004300
X+007446Y+003540
X+007192Y+003540
X+006938Y+003540
X+006684Y+003540
X+006430Y+003540
X+006176Y+003540
X+005922Y+003540
X+005859Y+002874
X+006113Y+002874
X+006367Y+002874
X+006367Y+002620
X+006113Y+002620
X+005859Y+002620
X+005605Y+002620
X+005351Y+002620
X+005097Y+002620
X+004843Y+002620
X+004589Y+002620
X+004335Y+002620
X+004335Y+002874
X+004589Y+002874
X+004843Y+002874
X+005097Y+002874
X+005351Y+002874
X+005605Y+002874
X+005605Y+002176
X+005351Y+002176
X+005097Y+002176
X+005097Y+001922
X+005351Y+001922
X+005605Y+001922
X+005859Y+001922
X+006113Y+001922
X+006367Y+001922
X+006367Y+002176
X+006113Y+002176
X+005859Y+002176
X+006621Y+002176
X+006875Y+002176
X+007129Y+002176
X+007383Y+002176
X+007637Y+002176
X+007637Y+001922
X+007383Y+001922
X+007129Y+001922
X+006875Y+001922
X+006621Y+001922
X+006621Y+001414
X+006367Y+001414
X+006113Y+001414
X+005795Y+001414
X+005541Y+001414
X+005287Y+001414
X+005033Y+001414
X+004779Y+001414
X+004525Y+001414
X+004271Y+001414
X+004017Y+001414
X+003700Y+001414
X+003446Y+001414
X+003192Y+001414
X+002938Y+001414
X+002684Y+001414
X+002430Y+001414
X+002176Y+001414
X+001922Y+001414
X+002303Y+001922
X+002557Y+001922
X+002811Y+001922
X+003065Y+001922
X+003319Y+001922
X+003573Y+001922
X+003827Y+001922
X+004081Y+001922
X+004081Y+002176
X+003827Y+002176
X+003573Y+002176
X+003319Y+002176
X+003065Y+002176
X+002811Y+002176
X+002557Y+002176
X+002303Y+002176
X+002303Y+002620
X+002303Y+002874
X+002557Y+002874
X+002811Y+002874
X+003065Y+002874
X+003319Y+002874
X+003573Y+002874
X+003827Y+002874
X+004081Y+002874
X+004081Y+002620
X+003827Y+002620
X+003573Y+002620
X+003319Y+002620
X+003065Y+002620
X+002811Y+002620
X+002557Y+002620
X+004335Y+002176
X+004589Y+002176
X+004843Y+002176
X+004843Y+001922
X+004589Y+001922
X+004335Y+001922
X+006621Y+002620
X+006875Y+002620
X+007129Y+002620
X+007383Y+002620
X+007637Y+002620
X+007891Y+002620
X+008145Y+002620
X+008145Y+002874
X+007891Y+002874
X+007637Y+002874
X+007383Y+002874
X+007129Y+002874
X+006875Y+002874
X+006621Y+002874
X+007891Y+002176
X+008145Y+002176
X+008145Y+001922
X+007891Y+001922
X+008399Y+001922
X+008399Y+002176
X+008399Y+002620
X+008399Y+002874
X+008764Y+003381
X+009018Y+003381
X+009272Y+003381
X+009526Y+003381
X+009780Y+003381
X+010034Y+003381
X+010288Y+003381
X+010288Y+004141
X+010034Y+004141
X+009780Y+004141
X+009526Y+004141
X+009272Y+004141
X+009018Y+004141
X+008764Y+004141
X+008843Y+004906
X+009097Y+004906
X+009097Y+005160
X+008843Y+005160
X+008589Y+005160
X+008335Y+005160
X+008081Y+005160
X+008081Y+004906
X+008335Y+004906
X+008589Y+004906
X+009351Y+004906
X+009351Y+005160
X+009240Y+006525
X+009494Y+006525
X+009748Y+006525
X+010002Y+006525
X+010256Y+006525
X+010510Y+006525
X+010510Y+007285
X+010256Y+007285
X+010002Y+007285
X+009748Y+007285
X+009494Y+007285
X+009240Y+007285
X+008986Y+007285
X+008986Y+006525
X+009526Y+010145
X+009526Y+010399
X+009526Y+010653
X+009478Y+001414
X+009732Y+001414
X+009986Y+001414
X+009224Y+001414
X+008970Y+001414
X+008716Y+001414
X+008462Y+001414
X+008208Y+001414
X+007891Y+001414
X+007637Y+001414
X+007383Y+001414
X+007129Y+001414
X+006875Y+001414
T05
X+007780Y+009827
X+008145Y+010065
X+007780Y+010843
X+009161Y+010065
T06
X+002747Y+003763
X+002747Y+004271
X+002699Y+006033
X+002699Y+006541
X+003239Y+007827
X+003239Y+008335
X+003096Y+010113
X+003096Y+010621
X+005668Y+006604
X+005668Y+006096
X+005477Y+004159
X+005477Y+003651
X+008335Y+003492
X+008335Y+004000
X+008542Y+006636
X+008542Y+007144
T07
X+006716Y+010669
X+006716Y+010069
X+007516Y+010069
X+007516Y+010669
T08
X+010621Y+008272
X+010621Y+008780
X+010621Y+009288
X+010621Y+009796
T09
X+001350Y+010653
X+010637Y+010653
X+010637Y+001366
X+001366Y+001366
T00
M30
