G04 DipTrace 2.3.1.0*
%INPERTEC-SCSI.GTS*%
%MOMM*%
%ADD31C,3.505*%
%ADD42C,2.103*%
%ADD44R,2.103X2.103*%
%ADD46C,1.727*%
%ADD48C,1.727*%
%ADD50R,1.473X1.473*%
%ADD52C,1.473*%
%ADD54C,3.251*%
%ADD56C,1.553*%
%ADD58R,1.553X1.553*%
%ADD60C,1.853*%
%ADD62C,1.703*%
%ADD64R,1.703X1.703*%
%ADD66C,1.703*%
%FSLAX53Y53*%
G04*
G71*
G90*
G75*
G01*
%LNTopMask*%
%LPD*%
D66*
X32550Y92240D3*
X35090D3*
X37630D3*
X40170D3*
X42710D3*
X45250D3*
X47790D3*
X50330D3*
X52870D3*
X55410D3*
X57950D3*
X60490D3*
X63030D3*
X65570D3*
X68110D3*
X70650D3*
X73190D3*
X75730D3*
X78270D3*
X80810D3*
X83350D3*
X85890D3*
X88430D3*
X90970D3*
X93510D3*
Y94780D3*
X90970D3*
X88430D3*
X85890D3*
X83350D3*
X80810D3*
X78270D3*
X75730D3*
X73190D3*
X70650D3*
X68110D3*
X65570D3*
X63030D3*
X60490D3*
X57950D3*
X55410D3*
X52870D3*
X50330D3*
X47790D3*
X45250D3*
X42710D3*
X40170D3*
X37630D3*
X35090D3*
X32550D3*
Y49060D3*
X35090D3*
X37630D3*
X40170D3*
X42710D3*
X45250D3*
X47790D3*
X50330D3*
X52870D3*
X55410D3*
X57950D3*
X60490D3*
X63030D3*
X65570D3*
X68110D3*
X70650D3*
X73190D3*
X75730D3*
X78270D3*
X80810D3*
X83350D3*
X85890D3*
X88430D3*
X90970D3*
X93510D3*
Y51600D3*
X90970D3*
X88430D3*
X85890D3*
X83350D3*
X80810D3*
X78270D3*
X75730D3*
X73190D3*
X70650D3*
X68110D3*
X65570D3*
X63030D3*
X60490D3*
X57950D3*
X55410D3*
X52870D3*
X50330D3*
X47790D3*
X45250D3*
X42710D3*
X40170D3*
X37630D3*
X35090D3*
X32550D3*
X23025Y19215D3*
X25565D3*
X28105D3*
X30645D3*
X33185D3*
X35725D3*
X38265D3*
X40805D3*
X43345D3*
X45885D3*
X48425D3*
X50965D3*
X53505D3*
X56045D3*
X58585D3*
X61125D3*
X63665D3*
X66205D3*
X68745D3*
X71285D3*
X73825D3*
X76365D3*
X78905D3*
X81445D3*
X83985D3*
Y21755D3*
X81445D3*
X78905D3*
X76365D3*
X73825D3*
X71285D3*
X68745D3*
X66205D3*
X63665D3*
X61125D3*
X58585D3*
X56045D3*
X53505D3*
X50965D3*
X48425D3*
X45885D3*
X43345D3*
X40805D3*
X38265D3*
X35725D3*
X33185D3*
X30645D3*
X28105D3*
X25565D3*
X23025D3*
Y26200D3*
X25565D3*
X28105D3*
X30645D3*
X33185D3*
X35725D3*
X38265D3*
X40805D3*
X43345D3*
X45885D3*
X48425D3*
X50965D3*
X53505D3*
X56045D3*
X58585D3*
X61125D3*
X63665D3*
X66205D3*
X68745D3*
X71285D3*
X73825D3*
X76365D3*
X78905D3*
X81445D3*
X83985D3*
Y28740D3*
X81445D3*
X78905D3*
X76365D3*
X73825D3*
X71285D3*
X68745D3*
X66205D3*
X63665D3*
X61125D3*
X58585D3*
X56045D3*
X53505D3*
X50965D3*
X48425D3*
X45885D3*
X43345D3*
X40805D3*
X38265D3*
X35725D3*
X33185D3*
X30645D3*
X28105D3*
X25565D3*
X23025D3*
X18580Y98590D3*
Y96050D3*
Y93510D3*
Y90970D3*
Y88430D3*
Y85890D3*
Y83350D3*
Y80810D3*
Y78270D3*
Y75730D3*
Y73190D3*
Y70650D3*
Y68110D3*
Y65570D3*
Y63030D3*
Y60490D3*
Y57950D3*
Y55410D3*
Y52870D3*
Y50330D3*
Y47790D3*
Y45250D3*
Y42710D3*
Y40170D3*
Y37630D3*
X21120D3*
Y40170D3*
Y42710D3*
Y45250D3*
Y47790D3*
Y50330D3*
Y52870D3*
Y55410D3*
Y57950D3*
Y60490D3*
Y63030D3*
Y65570D3*
Y68110D3*
Y70650D3*
Y73190D3*
Y75730D3*
Y78270D3*
Y80810D3*
Y83350D3*
Y85890D3*
Y88430D3*
Y90970D3*
Y93510D3*
Y96050D3*
Y98590D3*
D64*
X31912Y58899D3*
D62*
X34452D3*
X36992D3*
X39532D3*
X42072D3*
X44612D3*
X47152D3*
Y66499D3*
X44612D3*
X42072D3*
X39532D3*
X36992D3*
X34452D3*
X31912D3*
D64*
X60966Y59693D3*
D62*
X63506D3*
X66046D3*
X68586D3*
X71126D3*
X73666D3*
X76206D3*
Y67293D3*
X73666D3*
X71126D3*
X68586D3*
X66046D3*
X63506D3*
X60966D3*
D64*
X36516Y76363D3*
D62*
X39056D3*
X41596D3*
X44136D3*
X46676D3*
X49216D3*
X51756D3*
Y83963D3*
X49216D3*
X46676D3*
X44136D3*
X41596D3*
X39056D3*
X36516D3*
D64*
X59220Y35401D3*
D62*
X61760D3*
X64300D3*
X66840D3*
X69380D3*
X71920D3*
X74460D3*
Y43001D3*
X71920D3*
X69380D3*
X66840D3*
X64300D3*
X61760D3*
X59220D3*
D64*
X31280Y36360D3*
D62*
X33820D3*
X36360D3*
X38900D3*
X41440D3*
X43980D3*
X46520D3*
Y43960D3*
X43980D3*
X41440D3*
X38900D3*
X36360D3*
X33820D3*
X31280D3*
D64*
X89862Y65249D3*
D62*
X92402D3*
X94942D3*
X97482D3*
X100022D3*
X102562D3*
X105102D3*
Y72849D3*
X102562D3*
X100022D3*
X97482D3*
X94942D3*
X92402D3*
X89862D3*
D64*
X87639Y33814D3*
D62*
X90179D3*
X92719D3*
X95259D3*
X97799D3*
X100339D3*
X102879D3*
Y41414D3*
X100339D3*
X97799D3*
X95259D3*
X92719D3*
X90179D3*
X87639D3*
D64*
X33976Y100019D3*
D62*
X36516D3*
X39056D3*
X41596D3*
X44136D3*
X46676D3*
X49216D3*
X51756D3*
X54296D3*
X56836D3*
X33976Y107619D3*
X36516D3*
X39056D3*
X41596D3*
X44136D3*
X46676D3*
X49216D3*
X51756D3*
X54296D3*
X56836D3*
D60*
X27470Y37630D3*
Y42710D3*
D31*
X13500Y106528D3*
X106369D3*
Y13659D3*
X13659D3*
D60*
X54774Y36513D3*
Y41593D3*
X83352Y34925D3*
Y40005D3*
X85416Y71441D3*
Y66361D3*
X30959Y106211D3*
Y101131D3*
X32388Y83349D3*
Y78269D3*
X56679Y60963D3*
Y66043D3*
X26990Y60328D3*
Y65408D3*
D64*
X27470Y83350D3*
D62*
X24930D3*
X27470Y85890D3*
X24930D3*
X27470Y88430D3*
X24930D3*
X27470Y90970D3*
X24930D3*
X27470Y93510D3*
X24930D3*
X27470Y96050D3*
X24930D3*
X27470Y98590D3*
X24930D3*
D58*
X99860Y93510D3*
D56*
Y107010D3*
D64*
X19215Y14135D3*
D62*
X21755D3*
X24295D3*
X26835D3*
X29375D3*
X31915D3*
X34455D3*
X36995D3*
D64*
X40170D3*
D62*
X42710D3*
X45250D3*
X47790D3*
X50330D3*
X52870D3*
X55410D3*
X57950D3*
D64*
X61125D3*
D62*
X63665D3*
X66205D3*
X68745D3*
X71285D3*
X73825D3*
X76365D3*
X78905D3*
D64*
X82080D3*
D62*
X84620D3*
X87160D3*
X89700D3*
X92240D3*
X94780D3*
X97320D3*
X99860D3*
D64*
X13500Y33185D3*
D62*
X16040D3*
X18580D3*
X21120D3*
X23660D3*
X26200D3*
X28740D3*
X31280D3*
D64*
X14770Y96050D3*
D62*
Y93510D3*
Y90970D3*
Y88430D3*
Y85890D3*
Y83350D3*
Y80810D3*
Y78270D3*
D64*
Y75730D3*
D62*
Y73190D3*
Y70650D3*
Y68110D3*
Y65570D3*
Y63030D3*
Y60490D3*
Y57950D3*
D64*
Y55410D3*
D62*
Y52870D3*
Y50330D3*
Y47790D3*
Y45250D3*
Y42710D3*
Y40170D3*
Y37630D3*
D54*
X106210Y82715D3*
Y87795D3*
Y92875D3*
Y97955D3*
D64*
X24930Y80810D3*
D62*
X27470D3*
D64*
X61601Y76363D3*
D62*
X64141D3*
X66681D3*
X69221D3*
X71761D3*
X74301D3*
X76841D3*
Y83963D3*
X74301D3*
X71761D3*
X69221D3*
X66681D3*
X64141D3*
X61601D3*
D64*
X95260Y106529D3*
D62*
Y103989D3*
Y101449D3*
D52*
X82400Y106370D3*
D50*
X84940D3*
D48*
X77795Y98273D3*
D46*
Y108433D3*
D52*
X89227Y106211D3*
D50*
X91767D3*
D48*
X91608Y100654D3*
D46*
X81448D3*
D44*
X67158Y106687D3*
D42*
Y100687D3*
X75158D3*
Y106687D3*
M02*
